<?xml version="1.0" encoding="utf-8"?>
<!-- Generator: Adobe Illustrator 19.1.0, SVG Export Plug-In . SVG Version: 6.00 Build 0)  -->
<svg version="1.1" xmlns="http://www.w3.org/2000/svg" xmlns:xlink="http://www.w3.org/1999/xlink" x="0px" y="0px"
	 viewBox="0 0 380 380" style="enable-background:new 0 0 380 380;" xml:space="preserve">
<style type="text/css">
	.st0{fill:#DEDEDA;}
	.st1{fill:#BFBFB7;}
	.st2{fill:#F4EDE7;}
	.st3{fill:#DFCDBB;}
	.st4{fill:#6E6E6E;}
	.st5{fill:#F9A261;}
	.st6{fill:#98988B;}
	.st7{fill:#FBC297;}
	.st8{fill:#E7D9CC;}
	.st9{fill:#FCD6BA;}
	.st10{fill:#F9F6F3;}
	.st11{fill:#B8B8AF;}
	.st12{fill:#FDDEC8;}
	.st13{fill:#FAB27C;}
	.st14{fill:#8F8F8F;}
	.st15{fill:#FBC9A4;}
	.st16{fill:#878787;}
	.st17{fill:#F3EDE7;}
	.st18{fill-rule:evenodd;clip-rule:evenodd;fill:#6E6E6E;}
</style>
<g id="Background">
	<g>
		<rect y="242.3" class="st0" width="380" height="137.7"/>
		<g>
			<path class="st1" d="M112.3,317.9c-33,0-59.8,26.8-59.8,59.8c0,0.8,0,1.5,0.1,2.4h0.5c0-0.8-0.1-1.6-0.1-2.4
				c0-32.7,26.6-59.3,59.3-59.3c32.7,0,59.3,26.6,59.3,59.3c0,0.8,0,1.5-0.1,2.4h0.5c0-0.8,0.1-1.6,0.1-2.4
				C172.1,344.7,145.2,317.9,112.3,317.9z"/>
			<path class="st1" d="M112.3,327.4c-27.7,0-50.2,22.5-50.2,50.2c0,0.8,0,1.6,0.1,2.4h0.5c0-0.8-0.1-1.6-0.1-2.4
				c0-27.4,22.3-49.7,49.7-49.7c27.4,0,49.7,22.3,49.7,49.7c0,0.8,0,1.6-0.1,2.4h0.5c0-0.8,0.1-1.6,0.1-2.4
				C162.5,349.9,140,327.4,112.3,327.4z"/>
			<path class="st1" d="M112.3,336.3c-22.8,0-41.3,18.5-41.3,41.3c0,0.8,0,1.6,0.1,2.4h0.5c0-0.8-0.1-1.6-0.1-2.4
				c0-22.5,18.3-40.8,40.8-40.8c22.5,0,40.8,18.3,40.8,40.8c0,0.8,0,1.6-0.1,2.4h0.5c0-0.8,0.1-1.6,0.1-2.4
				C153.6,354.9,135.1,336.3,112.3,336.3z"/>
			<path class="st1" d="M225.7,356.6H216c-4,0-8.2-3.1-9.4-6.9l-7.8-19c-1.9-3.5-1.1-8.7,1.7-11.5l6.9-6.9c3-3,3-7.8,0-10.8l-19-19
				c-1.4-1.4-3.4-2.2-5.4-2.2c-2,0-4,0.8-5.4,2.2l-6.9,6.9c-1.7,1.7-4.4,2.7-7.1,2.7c-1.6,0-3.1-0.3-4.4-1l-19-7.8
				c-3.8-1.2-6.9-5.4-6.9-9.4v-9.7c0-4.2-3.4-7.6-7.6-7.6H98.9c-4.2,0-7.6,3.4-7.6,7.6v9.7c0,4-3.1,8.2-6.9,9.4l-19,7.8
				c-1.2,0.7-2.7,1-4.3,1c-2.8,0-5.4-1-7.1-2.7l-6.9-6.9c-1.4-1.4-3.4-2.2-5.4-2.2c-2,0-4,0.8-5.4,2.2l-19,19c-3,3-3,7.8,0,10.8
				l6.9,6.9c2.8,2.8,3.6,8,1.7,11.5l-7.8,19c-1.2,3.8-5.4,6.9-9.4,6.9H0v0.5h8.6c4.2,0,8.6-3.2,9.9-7.2l7.8-18.9
				c2-3.7,1.1-9.1-1.8-12.1l-6.9-6.9c-2.8-2.8-2.8-7.3,0-10.1l19-19c1.3-1.3,3.1-2.1,5.1-2.1c1.9,0,3.7,0.7,5,2.1l6.9,6.9
				c1.8,1.8,4.6,2.9,7.5,2.9c1.7,0,3.3-0.4,4.6-1l18.9-7.8c4-1.3,7.2-5.7,7.2-9.9v-9.7c0-3.9,3.2-7.1,7.1-7.1h26.8
				c3.9,0,7.1,3.2,7.1,7.1v9.7c0,4.2,3.2,8.6,7.2,9.9l18.9,7.8c1.3,0.7,2.9,1.1,4.6,1.1c2.9,0,5.7-1.1,7.5-2.9l6.9-6.9
				c1.3-1.3,3.1-2.1,5-2.1c1.9,0,3.7,0.7,5.1,2.1l19,19c2.8,2.8,2.8,7.3,0,10.1l-6.9,6.9c-3,3-3.8,8.4-1.8,12l7.8,18.9
				c1.3,4,5.7,7.2,9.9,7.2h9.7c3.9,0,7.1,3.2,7.1,7.1V380h0.5v-15.8C233.4,360,230,356.6,225.7,356.6z"/>
			<path class="st1" d="M379.1,280.3c-2,0-4,0.8-5.4,2.2l-19,19c-3,3-3,7.8,0,10.8l6.9,6.9c2.8,2.8,3.6,8,1.7,11.5l-7.8,19
				c-1.2,3.8-5.4,6.9-9.4,6.9h-9.8c-0.7,0-1.4,0.1-2,0.3l-0.2,0.1v22.8l-0.3,0.3h0.9v0l0.6-0.4c0.7-0.5,1.5-0.8,2.4-0.8
				c1.1,0,2.1,0.5,2.9,1.3h0.7c-0.9-1.1-2.2-1.8-3.6-1.8c-1,0-1.9,0.3-2.7,0.9l-0.3,0.2v-22.1c0.6-0.1,1.2-0.2,1.7-0.2h9.8
				c4.2,0,8.6-3.2,9.9-7.2l7.8-18.9c2-3.7,1.1-9.1-1.8-12.1l-6.9-6.9c-2.8-2.8-2.8-7.3,0-10.1l19-19c1.3-1.3,3.1-2.1,5.1-2.1
				c0.3,0,0.6,0,0.9,0.1v-0.5C379.7,280.3,379.4,280.3,379.1,280.3z"/>
			<path class="st1" d="M310.5,370.9l0.8-5.6c0.3-2.5-1.4-4.7-3.9-5.1l-15.3-2.1c-2.5-0.3-4.7,1.4-5.1,3.9l-0.8,5.6
				c-0.3,2.2-2.3,4.3-4.6,4.7l-11.4,3c-0.5,0.2-1.1,0.3-1.7,0.3c-1.8,0-3.6-0.8-4.6-2.1l-3.4-4.5c-0.9-1.1-2.2-1.8-3.6-1.8
				c-1,0-1.9,0.3-2.7,0.9l-12.3,9.4c-0.8,0.6-1.3,1.5-1.6,2.4h0.5c0.2-0.8,0.7-1.5,1.4-2l12.3-9.4c0.7-0.5,1.5-0.8,2.4-0.8
				c1.3,0,2.4,0.6,3.2,1.6l3.4,4.5c1.1,1.4,3,2.3,5,2.3c0.7,0,1.3-0.1,1.9-0.3l11.4-3c2.4-0.4,4.6-2.7,5-5.2l0.8-5.6
				c0.3-2.2,2.3-3.7,4.5-3.4l15.3,2.1c2.2,0.3,3.7,2.3,3.4,4.5l-0.8,5.6c-0.3,2.4,1.2,5.3,3.4,6.3l4.9,2.8h1l-5.7-3.3
				C311.6,375.8,310.2,373.2,310.5,370.9z"/>
		</g>
		<rect y="0" class="st2" width="380" height="229.8"/>
		<g>
			<path class="st3" d="M112.4,52.9c27.6,0,50.1-22.5,50.1-50.1c0-0.9,0-1.8-0.1-2.8H162c0.1,1,0.1,1.9,0.1,2.8
				c0,27.4-22.3,49.6-49.6,49.6C85,52.4,62.8,30.2,62.8,2.8c0-0.9,0-1.8,0.1-2.8h-0.5c-0.1,1-0.1,1.9-0.1,2.8
				C62.3,30.4,84.8,52.9,112.4,52.9z"/>
			<path class="st3" d="M112.4,62.5c32.9,0,59.7-26.8,59.7-59.7c0-0.9,0-1.8-0.1-2.8h-0.5c0.1,1,0.1,1.9,0.1,2.8
				c0,32.6-26.5,59.2-59.2,59.2C79.8,62,53.3,35.4,53.3,2.8c0-0.9,0-1.8,0.1-2.8h-0.5c-0.1,1-0.1,1.9-0.1,2.8
				C52.7,35.7,79.5,62.5,112.4,62.5z"/>
			<path class="st3" d="M112.4,44c22.7,0,41.2-18.5,41.2-41.2c0-0.9,0-1.9-0.1-2.8H153c0.1,0.9,0.1,1.9,0.1,2.8
				c0,22.5-18.3,40.7-40.7,40.7C90,43.5,71.7,25.2,71.7,2.8c0-0.9,0-1.8,0.1-2.8h-0.5c-0.1,0.9-0.1,1.9-0.1,2.8
				C71.2,25.5,89.7,44,112.4,44z"/>
			<path class="st3" d="M380,99.4c-0.4,0.1-0.8,0.1-1.2,0.1c-1.9,0-3.7-0.7-5-2.1l-19-19c-2.8-2.8-2.8-7.3,0-10.1l6.9-6.9
				c2.9-2.9,3.8-8.4,1.8-12l-7.8-18.9c-1.2-4-5.7-7.2-9.8-7.2h-9.7c-0.6,0-1.1-0.1-1.7-0.2v-22l0.3,0.2c0.8,0.6,1.7,0.9,2.7,0.9
				c1.4,0,2.7-0.6,3.6-1.8l0.3-0.4h-0.6l-0.1,0.1c-0.8,1-1.9,1.6-3.2,1.6c-0.9,0-1.7-0.3-2.4-0.8l-0.6-0.4V0h-0.5v0.1L333.8,0H333
				l0.9,0.7v22.8l0.2,0.1c0.7,0.2,1.4,0.3,2,0.3h9.7c4,0,8.2,3.1,9.4,6.9l7.8,18.9c1.9,3.5,1.1,8.7-1.7,11.5l-6.9,6.9
				c-3,3-3,7.8,0,10.8l19,19c1.4,1.4,3.4,2.2,5.4,2.2c0.4,0,0.8,0,1.2-0.1V99.4z"/>
			<path class="st3" d="M313.2,3.3c-2.2,1-3.7,3.9-3.4,6.3l0.8,5.6c0.3,2.2-1.2,4.2-3.4,4.5l-15.3,2.1c-2.2,0.3-4.2-1.3-4.5-3.4
				l-0.8-5.6c-0.3-2.4-2.6-4.7-5-5.2l-11.4-3c-0.6-0.2-1.2-0.3-1.9-0.3c-2,0-3.9,0.9-5,2.3L260,11c-0.8,1-1.9,1.6-3.2,1.6
				c-0.9,0-1.7-0.3-2.4-0.8l-12.3-9.4c-0.8-0.6-1.3-1.5-1.5-2.4h-0.5c0.2,1.1,0.8,2.1,1.7,2.8l12.3,9.4c0.8,0.6,1.7,0.9,2.7,0.9
				c1.4,0,2.7-0.6,3.6-1.8l3.4-4.5c1-1.3,2.8-2.1,4.6-2.1c0.6,0,1.2,0.1,1.7,0.3l11.4,3c2.2,0.4,4.3,2.5,4.6,4.7l0.8,5.6
				c0.3,2.4,2.6,4.2,5.1,3.9l15.3-2.1c2.5-0.3,4.2-2.6,3.9-5.1l-0.8-5.6c-0.3-2.2,1.1-4.8,3.1-5.8l6.4-3.7h-1L313.2,3.3z"/>
			<path class="st3" d="M232.8,16.2c0,3.9-3.2,7.1-7.1,7.1H216c-4.2,0-8.6,3.2-9.9,7.2l-7.8,18.9c-1.9,3.7-1.1,9.1,1.8,12l6.9,6.9
				c2.8,2.8,2.8,7.3,0,10.1l-19,19c-1.3,1.3-3.1,2.1-5,2.1c-1.9,0-3.7-0.7-5-2.1l-6.9-6.9c-1.8-1.8-4.6-2.9-7.5-2.9
				c-1.7,0-3.2,0.4-4.6,1.1l-18.9,7.8c-4,1.3-7.2,5.7-7.2,9.8v9.7c0,3.9-3.2,7.1-7.1,7.1H99c-3.9,0-7.1-3.2-7.1-7.1v-9.7
				c0-4.2-3.2-8.6-7.2-9.9l-18.9-7.8c-1.3-0.7-2.9-1-4.5-1c-2.9,0-5.7,1.1-7.5,2.9l-6.9,6.9c-1.3,1.3-3.1,2.1-5,2.1
				c-1.9,0-3.7-0.7-5-2.1l-19-19c-2.8-2.8-2.8-7.3,0-10.1l6.9-6.9c2.9-2.9,3.8-8.4,1.8-12l-7.8-18.9c-1.2-4-5.7-7.2-9.8-7.2H0v0.5
				h8.9c4,0,8.2,3.1,9.4,6.9l7.8,18.9c1.9,3.5,1.1,8.7-1.7,11.5L17.4,68c-3,3-3,7.8,0,10.8l19,19c1.4,1.4,3.4,2.2,5.4,2.2
				c2,0,4-0.8,5.4-2.2l6.9-6.9c1.7-1.7,4.4-2.7,7.1-2.7c1.6,0,3.1,0.3,4.3,1L84.5,97c3.8,1.2,6.9,5.4,6.9,9.4v9.7
				c0,4.2,3.4,7.6,7.6,7.6h26.8c4.2,0,7.6-3.4,7.6-7.6v-9.7c0-4,3.1-8.2,6.9-9.4l18.9-7.8c1.3-0.7,2.8-1,4.3-1c2.8,0,5.4,1,7.1,2.7
				l6.9,6.9c1.4,1.4,3.4,2.2,5.4,2.2c2,0,4-0.8,5.4-2.2l19-19c3-3,3-7.8,0-10.8l-6.9-6.9c-2.8-2.8-3.6-7.9-1.7-11.5l7.8-18.9
				c1.2-3.8,5.4-6.9,9.4-6.9h9.7c4.2,0,7.6-3.4,7.6-7.6V0h-0.5V16.2z"/>
		</g>
		<g>
			<rect y="229.8" class="st4" width="380" height="12.5"/>
			<g>
				<polygon class="st5" points="19.9,242.3 6.2,242.3 18,229.8 31.7,229.8 				"/>
				<polygon class="st5" points="48.5,242.3 34.7,242.3 46.6,229.8 60.3,229.8 				"/>
				<polygon class="st5" points="77,242.3 63.3,242.3 75.2,229.8 88.9,229.8 				"/>
				<polygon class="st5" points="105.6,242.3 91.9,242.3 103.8,229.8 117.5,229.8 				"/>
				<polygon class="st5" points="134.2,242.3 120.5,242.3 132.3,229.8 146.1,229.8 				"/>
				<polygon class="st5" points="162.8,242.3 149.1,242.3 160.9,229.8 174.6,229.8 				"/>
				<polygon class="st5" points="191.4,242.3 177.6,242.3 189.5,229.8 203.2,229.8 				"/>
				<polygon class="st5" points="219.9,242.3 206.2,242.3 218.1,229.8 231.8,229.8 				"/>
				<polygon class="st5" points="248.5,242.3 234.8,242.3 246.7,229.8 260.4,229.8 				"/>
				<polygon class="st5" points="277.1,242.3 263.4,242.3 275.2,229.8 289,229.8 				"/>
				<polygon class="st5" points="305.7,242.3 292,242.3 303.8,229.8 317.5,229.8 				"/>
				<polygon class="st5" points="334.3,242.3 320.5,242.3 332.4,229.8 346.1,229.8 				"/>
				<polygon class="st5" points="362.8,242.3 349.1,242.3 361,229.8 374.7,229.8 				"/>
			</g>
		</g>
		<rect y="0" class="st5" width="380" height="11.5"/>
	</g>
</g>
<g id="Black_Icons">
	<g>
		<g>
			<path class="st6" d="M129.6,344.1c0.2-0.7,0-3,0-3c0-0.2,0.2-0.6,0.7-0.6c-0.5,0.1-0.4,0.4-0.4,0.6c0,0,0.2,2.3,0,3.1
				c-0.1,0.4,0.4,0.5,0.4,0.5h0.9h2.9c0-1.9-1-3.4-3-3.8c-0.1-0.3-0.5-0.4-0.8-0.4c-0.3,0-0.7,0.1-0.8,0.4c-2,0.3-3,1.9-3,3.8h2.9
				C129.4,344.6,129.6,344.2,129.6,344.1z M131,341.1c0,0-0.1,2.2,0,2.9c0,0.1,0.2,0.5,0.2,0.5s-0.4-0.3-0.5-0.7
				c-0.1-0.7,0-2.6,0-2.6c0-0.2,0-0.5-0.3-0.6C130.9,340.6,131,341,131,341.1z M126.9,344.3c0-1.7,0.8-2.6,1.8-3.1
				C127.8,341.9,127.2,342.7,126.9,344.3z"/>
			<path class="st6" d="M135.5,352.9c0-0.1,0-0.1,0.1-0.2c0-0.1,0.1-0.2,0-0.3c0-0.1-0.1-0.2-0.2-0.2c-0.2-0.1-1.4-0.5-1.7-0.7
				c-0.2-0.1-0.4,0-0.5,0.2c0,0.1,0,0.1,0,0.2c-0.2-0.1-0.3-0.2-0.3-0.2s-0.3-1.2-0.4-1.2c-0.2,0-0.1,0.9-0.1,1.2
				c-0.1,0.6-0.5,1.7-1.9,1.7c-1.5,0-1.9-1.1-1.9-1.7c0-0.3,0.1-1.2-0.1-1.2c-0.2,0-0.5,1.2-0.5,1.2s-0.1,0.1-0.3,0.2
				c0-0.1,0-0.1,0-0.2c-0.1-0.2-0.3-0.3-0.5-0.2c-0.3,0.2-1.5,0.6-1.7,0.7c-0.1,0-0.2,0.1-0.2,0.2c0,0.1,0,0.2,0,0.3
				c0,0.1,0.1,0.1,0.1,0.2c-1.3,0.6-2.2,5.8-0.3,6.9c0.1,0.3,0.3,0.4,0.6,0.4h4.5l0.1-0.1c0,0,0,0,0.1-0.1h0.5c0,0.1,0,0.1,0.1,0.1
				l0.1,0.1h4.5c0.3,0,0.5-0.2,0.7-0.5C137.4,358.5,136.8,353.5,135.5,352.9z M130.1,358.8c-1.7-0.1-3.6,0-5.2,0.3
				c0-0.3,0-0.7,0.1-1.1c1.8-0.3,3.8-0.4,5.2-0.3C130.1,358.1,130.1,358.4,130.1,358.8z M125.2,356.1c0-0.4,0.1-0.7,0.1-1.1
				c1.7-0.3,3.5-0.3,4.8-0.2c0,0.3,0,0.6,0,1C128.5,355.7,126.7,355.8,125.2,356.1z M130.5,354.8c1.3-0.1,3.1,0,4.8,0.2
				c0,0.4,0.1,0.7,0.1,1.1c-1.5-0.3-3.4-0.4-4.9-0.3C130.5,355.4,130.5,355.1,130.5,354.8z M130.5,358.8c0-0.3,0-0.7,0-1
				c1.4-0.1,3.4,0,5.2,0.3c0,0.4,0.1,0.7,0.1,1.1C134.2,358.8,132.2,358.7,130.5,358.8z"/>
			<path class="st6" d="M126.2,345.3c0,0,1.9,0.7,4.1,0.7c2.3,0,4.1-0.7,4.1-0.7c0.1-0.1,0.1-0.2,0-0.3l-0.3-0.2h-3.8h-3.8l-0.3,0.2
				C126.1,345.2,126.1,345.3,126.2,345.3z"/>
			<path class="st6" d="M126.5,345.9c-0.1,0.4,0,0.7,0,1.2c0.1,0.4,0.3,0.3,0.3,0.7c0,0.3,0.1,0.7,0.4,0.7c0-0.2-0.3-1.1,0-1.2
				c0.2-0.1,0.1-0.4,0.1-0.8c0-0.2,0-0.3,0.1-0.4C127,346,126.7,345.9,126.5,345.9z"/>
			<path class="st6" d="M133.8,348c0-0.1,0.1-0.4,0.2-0.6c0.1-0.1,0.2-0.5,0.2-0.8c0-0.3-0.1-0.6-0.1-0.8c-0.2,0.1-0.5,0.1-0.9,0.2
				c0,0.1,0,0.2,0,0.3c0,0.1,0.1,0.3,0.2,0.6c0,0.1,0.1,0.1,0.1,0.3c0,0.3-0.1,0.6-0.1,0.9C133.7,348.2,133.8,348.1,133.8,348z"/>
		</g>
		<g>
			<path class="st6" d="M156.4,346c0.7,0.3,1.6-0.1,1.9-0.8c0.3-0.7-0.1-1.6-0.8-1.9c-0.7-0.3-1.6,0.1-1.9,0.8
				C155.3,344.8,155.6,345.7,156.4,346z M156.7,343.4c0.7-0.1,1.3,0.4,1.4,1c0.1,0.7-0.4,1.3-1,1.4c-0.7,0.1-1.3-0.4-1.4-1
				C155.6,344.1,156,343.5,156.7,343.4z"/>
			<path class="st6" d="M157.1,345.6c0.5-0.1,0.9-0.6,0.8-1.1c-0.1-0.5-0.6-0.9-1.1-0.8c-0.5,0.1-0.9,0.6-0.8,1.1
				C156,345.3,156.5,345.7,157.1,345.6z M156.4,344c0.1-0.1,0.3-0.2,0.5-0.1c0.2,0.1,0.2,0.2,0.1,0.3c-0.1,0.1-0.4,0.2-0.5,0.1
				C156.3,344.2,156.3,344.1,156.4,344z"/>
			<path class="st6" d="M169.8,346c0.7,0.3,1.6-0.1,1.9-0.8c0.3-0.7-0.1-1.6-0.8-1.9c-0.7-0.3-1.6,0.1-1.9,0.8
				C168.7,344.8,169,345.7,169.8,346z M170.1,343.4c0.7-0.1,1.3,0.4,1.4,1c0.1,0.7-0.4,1.3-1,1.4c-0.7,0.1-1.3-0.4-1.4-1
				C169,344.1,169.4,343.5,170.1,343.4z"/>
			<path class="st6" d="M170.5,345.6c0.5-0.1,0.9-0.6,0.8-1.1c-0.1-0.5-0.6-0.9-1.1-0.8c-0.5,0.1-0.9,0.6-0.8,1.1
				C169.5,345.3,170,345.7,170.5,345.6z M169.8,344c0.1-0.1,0.3-0.2,0.5-0.1c0.2,0.1,0.2,0.2,0.1,0.3c-0.1,0.1-0.4,0.2-0.5,0.1
				C169.8,344.2,169.7,344.1,169.8,344z"/>
			<path class="st6" d="M172.8,346.7h-18.5c-0.4,0-0.8,0.4-0.8,0.8v4.5c0,0.4,0.4,0.8,0.8,0.8h1.3l-0.9,7.5h0.8h0.3l0.2-1.9h1.9
				l0.1,0.5h0.5h0.2l-0.1-0.5h10l-0.1,0.5h0.2h0.5l0.1-0.5h1.8v0l0.2,1.9h0.3h0.8l-0.8-7.5h1.2c0.4,0,0.8-0.4,0.8-0.8v-4.5
				C173.6,347,173.2,346.7,172.8,346.7z M168,347h1.6l-1.4,2l-2.6,3.5h-1.6l2.6-3.5L168,347z M164.9,347h1.6l-1.4,2l-2.6,3.5h-1.6
				l2.6-3.5L164.9,347z M153.9,351.2v-2.1l0.1-0.2l1.4-2h1.6l-1.4,2L153.9,351.2z M154.6,352.5l2.6-3.5l1.4-2h1.6l-1.4,2l-2.6,3.5
				H154.6z M156.2,357.3l0.5-4.5h0.7l0.5,4.5H156.2z M157.7,352.5l2.6-3.5l1.4-2h1.6l-1.4,2l-2.6,3.5H157.7z M168.7,357.3h-10.2
				l0-0.3h10.3L168.7,357.3z M168.9,356h-10.5l-0.3-3.2h11.1L168.9,356z M168.6,352.5H167l2.6-3.5l1.4-2h1.6l-1.4,2L168.6,352.5z
				 M169.5,357.3l0.5-4.5h0.6l0.4,4.5H169.5z M173.3,350.4l-1.5,2.1h-1.6l2.6-3.5l0.5-0.7V350.4z"/>
		</g>
		<g>
			<path class="st6" d="M233,353.3c-0.3-0.3-0.7-0.3-0.9-0.1l0,0c-0.2,0.2-0.2,0.7,0.1,0.9l1.9,1.9c0.3,0.3,0.7,0.3,0.9,0.1l0,0
				c0.2-0.2,0.2-0.7-0.1-0.9L233,353.3z"/>
			<path class="st6" d="M238.5,356.7c0,0-3.2-3.2-3.2-3.2c-0.5-0.5-1.3-1.4-2.1-3.5c-0.8-2.1-1.4-4.2-1.4-4.2
				c0.6,1.8,0.1,4.2-1.4,5.8c-1.5,1.5-3,2.7-4.5,2.5c0,0,1.3,0.2,3.5,0.9c0.9,0.3,2.4,1.1,2.9,1.7c0,0,3.2,3.2,3.2,3.2
				c1,1,2.3,0.4,2.8-0.1C238.8,359.1,239.5,357.7,238.5,356.7z M235.3,356.5L235.3,356.5c-0.4,0.4-1.1,0.4-1.6-0.1l-1.8-1.8
				c-0.5-0.5-0.5-1.1-0.1-1.5l0.1-0.1c0.4-0.4,1.1-0.3,1.5,0.1l1.8,1.8C235.6,355.4,235.6,356.1,235.3,356.5z M237.6,358.8
				c-0.3,0.3-0.8,0.3-1.1,0c-0.3-0.3-0.3-0.8,0-1.1c0.3-0.3,0.8-0.3,1.1,0C237.9,358.1,237.9,358.6,237.6,358.8z"/>
			<path class="st6" d="M226.1,348.8c-0.5,0.3-1,0.4-1.5,0.1c-1.3-0.7-2.6-1.5-2.8-1.5c-0.1-0.1-0.2,0-0.3,0.1c0,0,0,0.1-0.1,0.1
				c0,0.1,0,0.2,0,0.4c0.1,0.6,0.9,2.2,2.5,3.7c0.4,0.4,0.8,0.6,1.3,0.6c0,0,0.8-2.1,1.4-3.6C226.4,348.6,226.2,348.7,226.1,348.8z"
				/>
			<path class="st6" d="M230,351.1c1.5-1.6,2-4,1.4-5.8c-0.2-0.5-0.4-1-0.8-1.4c-1.6-1.6-6.3-1.1-6.3-1.1c-0.3,0-0.5,0.1-0.6,0.3
				c-0.1,0.2,0.1,0.4,0.3,0.6c0.5,0.3,1.8,1,3,1.7c0.5,0.3,0.8,0.8,0.8,1.4c0,0.5-2.4,6.7-2.4,6.7
				C226.9,353.8,228.5,352.7,230,351.1z M229,351.3c-0.1,0.1-0.3,0.2-0.5,0.1l-1.1-0.4c-0.2-0.1-0.3-0.3-0.3-0.4
				c0.1-0.1,0.3-0.2,0.5-0.1l1.1,0.4C229,350.9,229.1,351.1,229,351.3z M229.4,350.2c-0.1,0.1-0.3,0.2-0.5,0.1l-1.1-0.4
				c-0.2-0.1-0.3-0.3-0.3-0.4c0.1-0.1,0.3-0.2,0.5-0.1l1.1,0.4C229.4,349.9,229.5,350.1,229.4,350.2z M229.4,349.3l-1.1-0.4
				c-0.2-0.1-0.3-0.3-0.3-0.4c0.1-0.1,0.3-0.2,0.5-0.1l1.1,0.4c0.2,0.1,0.3,0.3,0.3,0.4C229.8,349.3,229.6,349.4,229.4,349.3z"/>
		</g>
		<g>
			<path class="st6" d="M200.4,344.5c-0.3-0.3-0.7-0.5-1.1-0.5h-4.9c-0.4,0-0.9,0.2-1.1,0.5l-3.6,3.6c-0.3,0.3-0.5,0.7-0.5,1.1v4.9
				c0,0.4,0.2,0.9,0.5,1.1l3.6,3.6c0.3,0.3,0.7,0.5,1.1,0.5h4.9c0.4,0,0.9-0.2,1.1-0.5l3.6-3.6c0.3-0.3,0.5-0.8,0.5-1.1v-4.9
				c0-0.4-0.2-0.9-0.5-1.1L200.4,344.5z M193,353.1c-0.1,0.2-0.3,0.4-0.5,0.5c-0.2,0.1-0.5,0.1-0.8,0.1c-0.5,0-0.8-0.1-1.1-0.4
				c-0.2-0.2-0.4-0.6-0.4-1l0.7-0.1c0,0.3,0.1,0.5,0.3,0.6c0.1,0.1,0.3,0.2,0.5,0.2c0.2,0,0.4-0.1,0.5-0.2c0.1-0.1,0.2-0.2,0.2-0.4
				c0-0.1,0-0.2-0.1-0.2c-0.1-0.1-0.1-0.1-0.3-0.2c-0.1,0-0.3-0.1-0.6-0.2c-0.4-0.1-0.7-0.2-0.8-0.4c-0.2-0.2-0.3-0.5-0.3-0.8
				c0-0.2,0.1-0.4,0.2-0.6c0.1-0.2,0.3-0.3,0.5-0.4c0.2-0.1,0.4-0.1,0.7-0.1c0.5,0,0.8,0.1,1,0.3c0.2,0.2,0.4,0.5,0.4,0.9l-0.7,0
				c0-0.2-0.1-0.4-0.2-0.5c-0.1-0.1-0.3-0.1-0.5-0.1c-0.2,0-0.4,0-0.5,0.1c-0.1,0.1-0.1,0.1-0.1,0.3c0,0.1,0,0.2,0.1,0.2
				c0.1,0.1,0.3,0.2,0.7,0.3c0.4,0.1,0.6,0.2,0.8,0.3c0.2,0.1,0.3,0.2,0.4,0.4c0.1,0.2,0.1,0.4,0.1,0.7
				C193.2,352.7,193.1,352.9,193,353.1z M196.4,350.2h-1.1v3.4h-0.7v-3.4h-1.1v-0.7h2.9V350.2z M199.7,353.2
				c-0.3,0.4-0.7,0.6-1.3,0.6c-0.5,0-1-0.2-1.3-0.6c-0.3-0.4-0.5-0.9-0.5-1.5c0-0.4,0.1-0.8,0.2-1.1c0.1-0.2,0.2-0.4,0.3-0.6
				c0.1-0.2,0.3-0.3,0.5-0.4c0.2-0.1,0.5-0.2,0.8-0.2c0.5,0,1,0.2,1.3,0.6c0.3,0.4,0.5,0.9,0.5,1.6
				C200.2,352.3,200,352.8,199.7,353.2z M203.4,351.4c-0.1,0.2-0.2,0.3-0.3,0.4c-0.1,0.1-0.3,0.2-0.4,0.2c-0.2,0-0.4,0.1-0.8,0.1
				h-0.5v1.6h-0.7v-4.1h1.2c0.4,0,0.7,0,0.9,0.1c0.2,0.1,0.4,0.2,0.5,0.4c0.1,0.2,0.2,0.5,0.2,0.8
				C203.5,351.1,203.5,351.3,203.4,351.4z"/>
			<path class="st6" d="M198.4,350.2c-0.3,0-0.5,0.1-0.7,0.4c-0.2,0.2-0.3,0.6-0.3,1.1c0,0.5,0.1,0.8,0.3,1.1
				c0.2,0.2,0.4,0.4,0.7,0.4c0.3,0,0.5-0.1,0.7-0.4c0.2-0.2,0.3-0.6,0.3-1.1c0-0.5-0.1-0.8-0.3-1.1
				C199,350.3,198.7,350.2,198.4,350.2z"/>
			<path class="st6" d="M202.4,350.3c-0.1,0-0.3,0-0.5,0h-0.4v1.2h0.4c0.3,0,0.5,0,0.6-0.1c0.1,0,0.2-0.1,0.2-0.2
				c0.1-0.1,0.1-0.2,0.1-0.3c0-0.1,0-0.3-0.1-0.4C202.6,350.3,202.5,350.3,202.4,350.3z"/>
			<path class="st6" d="M205.1,347.6l-4.3-4.3c-0.2-0.2-0.7-0.4-1-0.4h-5.9c-0.3,0-0.8,0.2-1,0.4l-4.3,4.3c-0.2,0.2-0.4,0.7-0.4,1
				v5.9c0,0.3,0.2,0.8,0.4,1l4.3,4.3c0.2,0.2,0.7,0.4,1,0.4h5.9c0.3,0,0.8-0.2,1-0.4l4.3-4.3c0.2-0.2,0.4-0.7,0.4-1v-5.9
				C205.6,348.3,205.4,347.9,205.1,347.6z M204.9,354.3c0,0.4-0.2,0.8-0.5,1.1l-3.9,3.9c-0.2,0.2-0.7,0.5-1.1,0.5h-5.3
				c-0.4,0-0.8-0.2-1.1-0.5l-3.9-3.9c-0.2-0.2-0.5-0.7-0.5-1.1v-5.3c0-0.4,0.2-0.8,0.5-1.1l3.9-3.9c0.2-0.2,0.7-0.5,1.1-0.5h5.3
				c0.4,0,0.8,0.2,1.1,0.5l3.9,3.9c0.2,0.2,0.5,0.7,0.5,1.1V354.3z"/>
		</g>
		<g>
			<path class="st6" d="M271.5,358.2h-16.1c-0.3,0-0.5,0.2-0.5,0.5v1c0,0.3,0.2,0.5,0.5,0.5h16.1c0.3,0,0.5-0.2,0.5-0.5v-1
				C272,358.5,271.8,358.2,271.5,358.2z"/>
			<path class="st6" d="M268.4,354.9l-0.8-2.9l-0.7-2.8l-0.8-2.9l-0.7-2.9c-0.1-0.3-0.4-0.6-0.7-0.6h-2.4c-0.3,0-0.6,0.2-0.7,0.6
				l-0.8,2.9l-0.8,2.9l-0.7,2.8l-0.8,2.9l-0.7,2.9h11.3L268.4,354.9z M262.3,343h2.4c0.2,0,0.4,0.2,0.5,0.3h-3.4
				C261.9,343.1,262.1,343,262.3,343z M261,346.3L261,346.3l4.9-0.1l0,0.1l0.7,2.9h-6.4L261,346.3z M258.8,354.9l0.7-2.9l0-0.1h7.9
				l0,0.1l0.7,2.9H258.8z"/>
		</g>
	</g>
</g>
<g id="Color_icons">
	<g>
		<path class="st1" d="M72.5,335.6h-4.9l-0.2-2c1.6-0.6,2.6-2.2,2.3-3.9c-0.3-1.9-2.1-3.2-4-2.9c-1.9,0.3-3.2,2.1-2.9,4
			c0.2,1.4,1.2,2.4,2.4,2.8l0.2,2H33.5l0.2-2c1.6-0.5,2.6-2.2,2.4-3.9c-0.3-1.9-2.1-3.2-4-2.9c-1.9,0.3-3.2,2.1-2.9,4
			c0.2,1.3,1.1,2.3,2.3,2.8l-0.2,2H26c-1.1,0-2,0.9-2,2V349c0,1.1,0.9,2,2,2h3.3l-2.3,18.8h2.1h0.7l0.5-4.7h4.8l0.1,1.3h1.3H37
			l-0.1-1.3H62l-0.1,1.3h0.4h1.3l0.1-1.3h4.5l0,0l0.5,4.7h0.7h2.1L69.4,351h3.1c1.1,0,2-0.9,2-2v-11.4
			C74.5,336.5,73.6,335.6,72.5,335.6z M63.4,351l-0.8,8l0,0H36.3l-0.8-8H63.4z M33.5,351l1.3,11.3h-4.1l1.2-11.3H33.5z M36.5,361.5
			h25.8l-0.1,0.8H36.6L36.5,361.5z M65.4,351h1.5l1.1,11.3h-3.9L65.4,351z"/>
		<path class="st1" d="M362.6,364.7h-6l-1.9-7.3l-1.9-7.4l-1.8-7.1l-1.9-7.4l-1.9-7.3c-0.2-0.8-1-1.4-1.8-1.4h-6.1
			c-0.8,0-1.6,0.6-1.8,1.4l-1.9,7.3l-1.9,7.4l-1.8,7.1l-1.9,7.4l-1.9,7.3h-6c-0.7,0-1.3,0.6-1.3,1.3v2.6c0,0.7,0.6,1.3,1.3,1.3h40.6
			c0.7,0,1.3-0.6,1.3-1.3V366C363.8,365.3,363.2,364.7,362.6,364.7z"/>
		<g>
			<g>
				<path class="st5" d="M359.8,362c0-0.7-0.6-1.3-1.3-1.3H318c-0.7,0-1.3,0.6-1.3,1.3v2.6c0,0.7,0.6,1.3,1.3,1.3h40.6
					c0.7,0,1.3-0.6,1.3-1.3V362z"/>
				<path class="st6" d="M358.6,365.1H318c-0.7,0-1.3-0.5-1.3-0.5c0,0.7,0.6,1.3,1.3,1.3h40.6c0.7,0,1.3-0.6,1.3-1.3
					C359.8,364.6,359.2,365.1,358.6,365.1z"/>
				<path class="st7" d="M316.7,362c0-0.7,0.6-1.3,1.3-1.3h40.6c0.7,0,1.3,0.6,1.3,1.3H316.7z"/>
			</g>
			<g>
				<g>
					<g>
						<path class="st5" d="M350.7,353.4l-1.9-7.4l-1.8-7.1l-1.9-7.4l-1.9-7.3c-0.2-0.8-1-1.4-1.8-1.4h-6.1c-0.8,0-1.6,0.6-1.8,1.4
							l-1.9,7.3l-1.9,7.4l-1.8,7.1l-1.9,7.4l-1.9,7.3h28.6L350.7,353.4z"/>
						<path class="st7" d="M335.2,322.7c-0.8,0-1.6,0.6-1.8,1.4h9.7c-0.2-0.8-1-1.4-1.8-1.4H335.2z"/>
					</g>
					<g>
						<polygon class="st8" points="325.9,353.4 350.7,353.4 348.8,346 327.8,346 						"/>
						<polygon class="st8" points="345,331.5 331.5,331.5 329.6,338.9 346.9,338.9 						"/>
					</g>
				</g>
				<g>
					<path class="st9" d="M335.4,331.5l1.1-7.3h1.8v7.3H335.4z M330.3,353.4l-2.3,7.3h10.2v-7.3H330.3z M338.3,346v-7.1H334
						l-1.6,7.1H338.3z"/>
					<g>
						<polygon class="st10" points="334,338.9 338.3,338.9 338.3,331.5 335.4,331.5 						"/>
						<polygon class="st10" points="338.3,346 332.3,346 330.3,353.4 338.3,353.4 						"/>
					</g>
				</g>
			</g>
		</g>
		<g>
			<g>
				<g>
					<polygon class="st6" points="27.8,331.6 31.2,362.4 32.6,362.4 29.4,331.6 					"/>
					<polygon class="st4" points="29.4,331.6 32.6,362.4 33,362.4 30,331.6 					"/>
				</g>
				<g>
					<polygon class="st6" points="61.5,331.6 58.3,362.4 59.6,362.4 63.1,331.6 					"/>
					<polygon class="st11" points="60.9,331.6 57.9,362.4 58.3,362.4 61.5,331.6 					"/>
				</g>
				<g>
					<polygon class="st6" points="58.8,357.5 59,355.6 31.9,355.6 32.1,357.5 					"/>
					<polygon class="st11" points="31.9,355.6 59,355.6 58.6,355 32.3,355 					"/>
				</g>
			</g>
			<g>
				<g>
					<polygon class="st11" points="25.2,365.8 23.1,365.8 27.5,329.2 29.2,329.2 					"/>
					<polygon class="st6" points="29.2,329.2 25.2,365.8 25.8,365.8 29.7,329.2 					"/>
				</g>
				<g>
					<polygon class="st11" points="65.4,365.8 67.5,365.8 63.4,329.2 61.7,329.2 					"/>
					<polygon class="st6" points="61.7,329.2 65.4,365.8 64.7,365.8 61.1,329.2 					"/>
				</g>
				<g>
					<polygon class="st11" points="64.9,360.4 64.7,358.3 26,358.3 25.8,360.4 					"/>
					<polygon class="st6" points="25.8,360.4 64.9,360.4 64.3,361.1 26.3,361.1 					"/>
				</g>
			</g>
			<g>
				<g>
					<g>
						<circle class="st6" cx="28.6" cy="326.2" r="3.5"/>
						<circle class="st4" cx="28.6" cy="326.2" r="3.3"/>
					</g>
					<g>
						<circle class="st5" cx="28.6" cy="326.2" r="2.8"/>
						<g>
							<path class="st12" d="M28.7,324.7c-0.3,0.2-0.8,0.3-1.1,0.2c-0.3-0.1-0.4-0.4-0.2-0.7c0.2-0.3,0.7-0.4,1.1-0.2
								C28.9,324.2,29,324.5,28.7,324.7z"/>
						</g>
					</g>
				</g>
				<g>
					<g>
						<circle class="st6" cx="62.2" cy="326.2" r="3.5"/>
						<circle class="st4" cx="62.2" cy="326.2" r="3.3"/>
					</g>
					<g>
						<circle class="st5" cx="62.2" cy="326.2" r="2.8"/>
						<g>
							<path class="st12" d="M62.3,324.7c-0.3,0.2-0.8,0.3-1.1,0.2c-0.3-0.1-0.4-0.4-0.2-0.7c0.2-0.3,0.7-0.4,1.1-0.2
								C62.5,324.2,62.6,324.5,62.3,324.7z"/>
						</g>
					</g>
				</g>
			</g>
			<g>
				<path class="st4" d="M70.4,345c0,1.1-0.9,2-2,2H22c-1.1,0-2-0.9-2-2v-11.4c0-1.1,0.9-2,2-2h46.4c1.1,0,2,0.9,2,2V345z"/>
				<g>
					<g>
						<path class="st4" d="M69.6,344.7c0,0.8-0.7,1.5-1.5,1.5H22.3c-0.8,0-1.5-0.7-1.5-1.5v-10.8c0-0.8,0.7-1.5,1.5-1.5h45.8
							c0.8,0,1.5,0.7,1.5,1.5V344.7z"/>
						<path class="st13" d="M44.5,332.4l-3.6,4.9l-6.5,8.9h-3.9l6.5-8.9l3.6-4.9H44.5z M24.7,332.4l-3.6,4.9l-0.3,0.4v5.3l4.2-5.8
							l3.6-4.9H24.7z M48.4,332.4l-3.6,4.9l-6.5,8.9h3.9l6.5-8.9l3.6-4.9H48.4z M32.7,332.4l-3.6,4.9l-6.5,8.9h3.9l6.5-8.9l3.6-4.9
							H32.7z M69.6,335.6l-1.2,1.7l-6.5,8.9h3.9l3.8-5.2V335.6z M56.2,332.4l-3.6,4.9l-6.5,8.9H50l6.5-8.9l3.6-4.9H56.2z M64,332.4
							l-3.6,4.9l-6.5,8.9h3.9l6.5-8.9l3.6-4.9H64z"/>
					</g>
					<g>
						<path class="st14" d="M69.6,337.3v-3.4c0-0.8-0.7-1.5-1.5-1.5H22.3c-0.8,0-1.5,0.7-1.5,1.5v3.4H69.6z"/>
						<path class="st15" d="M52.6,337.3l3.6-4.9h3.9l-3.6,4.9H52.6z M69.6,337.3v-1.7l-1.2,1.7H69.6z M48.7,337.3l3.6-4.9h-3.9
							l-3.6,4.9H48.7z M64.3,337.3l3.6-4.9H64l-3.6,4.9H64.3z M25,337.3l3.6-4.9h-3.9l-3.6,4.9H25z M40.9,337.3l3.6-4.9h-3.9
							l-3.6,4.9H40.9z M33,337.3l3.6-4.9h-3.9l-3.6,4.9H33z"/>
					</g>
				</g>
			</g>
		</g>
	</g>
</g>
<g id="Text">
	<g>
		<path class="st6" d="M133.6,298.4h0.7v4.5h2.2v0.5h-2.8V298.4z"/>
		<path class="st6" d="M140.3,301.6c0,1.3-0.9,1.9-1.8,1.9c-1,0-1.7-0.7-1.7-1.9c0-1.2,0.8-1.9,1.8-1.9
			C139.6,299.7,140.3,300.5,140.3,301.6z M137.4,301.6c0,0.8,0.5,1.4,1.1,1.4c0.6,0,1.1-0.6,1.1-1.4c0-0.6-0.3-1.4-1.1-1.4
			C137.7,300.2,137.4,300.9,137.4,301.6z"/>
		<path class="st6" d="M141.1,300.9c0-0.4,0-0.8,0-1.1h0.6l0,0.7h0c0.2-0.5,0.6-0.8,1-0.8c0.1,0,0.1,0,0.2,0v0.6c-0.1,0-0.1,0-0.2,0
			c-0.5,0-0.8,0.4-0.9,0.8c0,0.1,0,0.2,0,0.3v1.9h-0.7V300.9z"/>
		<path class="st6" d="M143.8,301.7c0,0.9,0.6,1.3,1.2,1.3c0.5,0,0.8-0.1,1-0.2l0.1,0.5c-0.2,0.1-0.6,0.2-1.2,0.2
			c-1.1,0-1.8-0.7-1.8-1.8s0.6-2,1.7-2c1.2,0,1.5,1,1.5,1.7c0,0.1,0,0.2,0,0.3H143.8z M145.8,301.2c0-0.4-0.2-1.1-0.9-1.1
			c-0.7,0-1,0.6-1,1.1H145.8z"/>
		<path class="st6" d="M147.2,300.8c0-0.4,0-0.7,0-1h0.6l0,0.6h0c0.2-0.3,0.5-0.7,1.1-0.7c0.5,0,0.9,0.3,1,0.7h0
			c0.1-0.2,0.3-0.4,0.4-0.5c0.2-0.2,0.5-0.3,0.8-0.3c0.5,0,1.2,0.3,1.2,1.6v2.1h-0.6v-2c0-0.7-0.3-1.1-0.8-1.1
			c-0.4,0-0.7,0.3-0.8,0.6c0,0.1-0.1,0.2-0.1,0.3v2.2h-0.6v-2.2c0-0.6-0.3-1-0.8-1c-0.4,0-0.7,0.3-0.8,0.7c0,0.1-0.1,0.2-0.1,0.3
			v2.2h-0.6V300.8z"/>
		<path class="st6" d="M155.8,298.8c0,0.2-0.2,0.4-0.4,0.4c-0.2,0-0.4-0.2-0.4-0.4c0-0.2,0.2-0.4,0.4-0.4
			C155.6,298.4,155.8,298.5,155.8,298.8z M155,303.4v-3.6h0.7v3.6H155z"/>
		<path class="st6" d="M156.8,301c0-0.5,0-0.8,0-1.2h0.6l0,0.6h0c0.3-0.4,0.7-0.7,1.3-0.7c0.9,0,1.5,0.7,1.5,1.8
			c0,1.3-0.8,1.9-1.6,1.9c-0.5,0-0.9-0.2-1.1-0.6h0v2h-0.7V301z M157.4,301.9c0,0.1,0,0.2,0,0.3c0.1,0.5,0.5,0.8,1,0.8
			c0.7,0,1.1-0.6,1.1-1.4c0-0.7-0.4-1.3-1.1-1.3c-0.4,0-0.9,0.3-1,0.8c0,0.1,0,0.2,0,0.3V301.9z"/>
		<path class="st6" d="M161,302.7c0.2,0.1,0.5,0.3,0.9,0.3c0.5,0,0.7-0.2,0.7-0.5c0-0.3-0.2-0.5-0.7-0.7c-0.7-0.2-1-0.6-1-1
			c0-0.6,0.5-1.1,1.2-1.1c0.4,0,0.7,0.1,0.9,0.2l-0.2,0.5c-0.1-0.1-0.4-0.2-0.7-0.2c-0.4,0-0.6,0.2-0.6,0.5c0,0.3,0.2,0.4,0.7,0.6
			c0.6,0.2,0.9,0.6,0.9,1.1c0,0.6-0.5,1.1-1.4,1.1c-0.4,0-0.8-0.1-1-0.2L161,302.7z"/>
		<path class="st6" d="M167,302.4c0,0.4,0,0.7,0,1h-0.6l0-0.6h0c-0.2,0.3-0.6,0.7-1.2,0.7c-0.6,0-1.2-0.3-1.2-1.6v-2.1h0.7v2
			c0,0.7,0.2,1.2,0.8,1.2c0.4,0,0.7-0.3,0.9-0.6c0-0.1,0.1-0.2,0.1-0.3v-2.2h0.7V302.4z"/>
		<path class="st6" d="M168.1,300.8c0-0.4,0-0.7,0-1h0.6l0,0.6h0c0.2-0.3,0.5-0.7,1.1-0.7c0.5,0,0.9,0.3,1,0.7h0
			c0.1-0.2,0.3-0.4,0.4-0.5c0.2-0.2,0.5-0.3,0.8-0.3c0.5,0,1.2,0.3,1.2,1.6v2.1h-0.6v-2c0-0.7-0.3-1.1-0.8-1.1
			c-0.4,0-0.7,0.3-0.8,0.6c0,0.1-0.1,0.2-0.1,0.3v2.2h-0.6v-2.2c0-0.6-0.3-1-0.8-1c-0.4,0-0.7,0.3-0.8,0.7c0,0.1-0.1,0.2-0.1,0.3
			v2.2h-0.6V300.8z"/>
		<path class="st6" d="M179.1,298.1v4.4c0,0.3,0,0.7,0,0.9h-0.6l0-0.6h0c-0.2,0.4-0.6,0.7-1.2,0.7c-0.9,0-1.5-0.7-1.5-1.8
			c0-1.2,0.7-1.9,1.6-1.9c0.6,0,0.9,0.3,1.1,0.6h0v-2.2H179.1z M178.4,301.3c0-0.1,0-0.2,0-0.3c-0.1-0.4-0.5-0.8-0.9-0.8
			c-0.7,0-1.1,0.6-1.1,1.4c0,0.7,0.4,1.3,1.1,1.3c0.4,0,0.8-0.3,1-0.8c0-0.1,0-0.2,0-0.3V301.3z"/>
		<path class="st6" d="M183.5,301.6c0,1.3-0.9,1.9-1.8,1.9c-1,0-1.7-0.7-1.7-1.9c0-1.2,0.8-1.9,1.8-1.9
			C182.8,299.7,183.5,300.5,183.5,301.6z M180.6,301.6c0,0.8,0.5,1.4,1.1,1.4c0.6,0,1.1-0.6,1.1-1.4c0-0.6-0.3-1.4-1.1-1.4
			C180.9,300.2,180.6,300.9,180.6,301.6z"/>
		<path class="st6" d="M184.3,298.1h0.7v5.3h-0.7V298.1z"/>
		<path class="st6" d="M189.3,301.6c0,1.3-0.9,1.9-1.8,1.9c-1,0-1.7-0.7-1.7-1.9c0-1.2,0.8-1.9,1.8-1.9
			C188.6,299.7,189.3,300.5,189.3,301.6z M186.5,301.6c0,0.8,0.5,1.4,1.1,1.4c0.6,0,1.1-0.6,1.1-1.4c0-0.6-0.3-1.4-1.1-1.4
			C186.8,300.2,186.5,300.9,186.5,301.6z"/>
		<path class="st6" d="M190.2,300.9c0-0.4,0-0.8,0-1.1h0.6l0,0.7h0c0.2-0.5,0.6-0.8,1-0.8c0.1,0,0.1,0,0.2,0v0.6c-0.1,0-0.1,0-0.2,0
			c-0.5,0-0.8,0.4-0.9,0.8c0,0.1,0,0.2,0,0.3v1.9h-0.7V300.9z"/>
		<path class="st6" d="M194.1,302.7c0.2,0.1,0.5,0.3,0.9,0.3c0.5,0,0.7-0.2,0.7-0.5c0-0.3-0.2-0.5-0.7-0.7c-0.7-0.2-1-0.6-1-1
			c0-0.6,0.5-1.1,1.2-1.1c0.4,0,0.7,0.1,0.9,0.2l-0.2,0.5c-0.1-0.1-0.4-0.2-0.7-0.2c-0.4,0-0.6,0.2-0.6,0.5c0,0.3,0.2,0.4,0.7,0.6
			c0.6,0.2,0.9,0.6,0.9,1.1c0,0.6-0.5,1.1-1.4,1.1c-0.4,0-0.8-0.1-1-0.2L194.1,302.7z"/>
		<path class="st6" d="M197.9,298.8c0,0.2-0.2,0.4-0.4,0.4c-0.2,0-0.4-0.2-0.4-0.4c0-0.2,0.2-0.4,0.4-0.4
			C197.7,298.4,197.9,298.5,197.9,298.8z M197.2,303.4v-3.6h0.7v3.6H197.2z"/>
		<path class="st6" d="M199.7,298.7v1h0.9v0.5h-0.9v2c0,0.4,0.1,0.7,0.5,0.7c0.2,0,0.3,0,0.4,0l0,0.5c-0.1,0.1-0.3,0.1-0.6,0.1
			c-0.3,0-0.6-0.1-0.7-0.3c-0.2-0.2-0.3-0.5-0.3-0.9v-2h-0.6v-0.5h0.6v-0.9L199.7,298.7z"/>
		<path class="st6" d="M205,303.4l-0.1-0.5h0c-0.2,0.3-0.6,0.5-1.1,0.5c-0.7,0-1.1-0.5-1.1-1c0-0.9,0.8-1.4,2.2-1.3V301
			c0-0.3-0.1-0.8-0.8-0.8c-0.3,0-0.7,0.1-0.9,0.3L203,300c0.3-0.2,0.7-0.3,1.2-0.3c1.1,0,1.4,0.8,1.4,1.5v1.4c0,0.3,0,0.6,0.1,0.9
			H205z M204.9,301.6c-0.7,0-1.5,0.1-1.5,0.8c0,0.4,0.3,0.6,0.6,0.6c0.5,0,0.8-0.3,0.9-0.6c0-0.1,0-0.1,0-0.2V301.6z"/>
		<path class="st6" d="M206.6,300.8c0-0.4,0-0.7,0-1h0.6l0,0.6h0c0.2-0.3,0.5-0.7,1.1-0.7c0.5,0,0.9,0.3,1,0.7h0
			c0.1-0.2,0.3-0.4,0.4-0.5c0.2-0.2,0.5-0.3,0.8-0.3c0.5,0,1.2,0.3,1.2,1.6v2.1h-0.6v-2c0-0.7-0.3-1.1-0.8-1.1
			c-0.4,0-0.7,0.3-0.8,0.6c0,0.1-0.1,0.2-0.1,0.3v2.2h-0.6v-2.2c0-0.6-0.3-1-0.8-1c-0.4,0-0.7,0.3-0.8,0.7c0,0.1-0.1,0.2-0.1,0.3
			v2.2h-0.6V300.8z"/>
		<path class="st6" d="M213.2,301.7c0,0.9,0.6,1.3,1.2,1.3c0.5,0,0.8-0.1,1-0.2l0.1,0.5c-0.2,0.1-0.6,0.2-1.2,0.2
			c-1.1,0-1.8-0.7-1.8-1.8s0.6-2,1.7-2c1.2,0,1.5,1,1.5,1.7c0,0.1,0,0.2,0,0.3H213.2z M215.1,301.2c0-0.4-0.2-1.1-0.9-1.1
			c-0.7,0-1,0.6-1,1.1H215.1z"/>
		<path class="st6" d="M217.4,298.7v1h0.9v0.5h-0.9v2c0,0.4,0.1,0.7,0.5,0.7c0.2,0,0.3,0,0.4,0l0,0.5c-0.1,0.1-0.3,0.1-0.6,0.1
			c-0.3,0-0.6-0.1-0.7-0.3c-0.2-0.2-0.3-0.5-0.3-0.9v-2h-0.6v-0.5h0.6v-0.9L217.4,298.7z"/>
		<path class="st6" d="M218.6,304.3c0.2-0.4,0.4-1.2,0.4-1.8l0.7-0.1c-0.2,0.6-0.5,1.5-0.7,1.8L218.6,304.3z"/>
		<path class="st6" d="M224.7,303.3c-0.2,0.1-0.6,0.2-1,0.2c-1.1,0-1.8-0.7-1.8-1.8c0-1.1,0.8-1.9,1.9-1.9c0.4,0,0.7,0.1,0.9,0.2
			l-0.1,0.5c-0.2-0.1-0.4-0.2-0.8-0.2c-0.8,0-1.3,0.6-1.3,1.4c0,0.8,0.5,1.4,1.3,1.4c0.4,0,0.6-0.1,0.8-0.2L224.7,303.3z"/>
		<path class="st6" d="M228.7,301.6c0,1.3-0.9,1.9-1.8,1.9c-1,0-1.7-0.7-1.7-1.9c0-1.2,0.8-1.9,1.8-1.9
			C228,299.7,228.7,300.5,228.7,301.6z M225.9,301.6c0,0.8,0.5,1.4,1.1,1.4c0.6,0,1.1-0.6,1.1-1.4c0-0.6-0.3-1.4-1.1-1.4
			C226.2,300.2,225.9,300.9,225.9,301.6z"/>
		<path class="st6" d="M229.6,300.8c0-0.4,0-0.7,0-1h0.6l0,0.6h0c0.2-0.3,0.6-0.7,1.2-0.7c0.5,0,1.3,0.3,1.3,1.5v2.2H232v-2.1
			c0-0.6-0.2-1.1-0.8-1.1c-0.4,0-0.8,0.3-0.9,0.7c0,0.1,0,0.2,0,0.3v2.2h-0.7V300.8z"/>
		<path class="st6" d="M233.6,302.7c0.2,0.1,0.5,0.3,0.9,0.3c0.5,0,0.7-0.2,0.7-0.5c0-0.3-0.2-0.5-0.7-0.7c-0.7-0.2-1-0.6-1-1
			c0-0.6,0.5-1.1,1.2-1.1c0.4,0,0.7,0.1,0.9,0.2l-0.2,0.5c-0.1-0.1-0.4-0.2-0.7-0.2c-0.4,0-0.6,0.2-0.6,0.5c0,0.3,0.2,0.4,0.7,0.6
			c0.6,0.2,0.9,0.6,0.9,1.1c0,0.6-0.5,1.1-1.4,1.1c-0.4,0-0.8-0.1-1-0.2L233.6,302.7z"/>
		<path class="st6" d="M237.1,301.7c0,0.9,0.6,1.3,1.2,1.3c0.5,0,0.8-0.1,1-0.2l0.1,0.5c-0.2,0.1-0.6,0.2-1.2,0.2
			c-1.1,0-1.8-0.7-1.8-1.8s0.6-2,1.7-2c1.2,0,1.5,1,1.5,1.7c0,0.1,0,0.2,0,0.3H237.1z M239,301.2c0-0.4-0.2-1.1-0.9-1.1
			c-0.7,0-1,0.6-1,1.1H239z"/>
		<path class="st6" d="M243,303.3c-0.2,0.1-0.6,0.2-1,0.2c-1.1,0-1.8-0.7-1.8-1.8c0-1.1,0.8-1.9,1.9-1.9c0.4,0,0.7,0.1,0.9,0.2
			l-0.1,0.5c-0.2-0.1-0.4-0.2-0.8-0.2c-0.8,0-1.3,0.6-1.3,1.4c0,0.8,0.5,1.4,1.3,1.4c0.4,0,0.6-0.1,0.8-0.2L243,303.3z"/>
		<path class="st6" d="M244.7,298.7v1h0.9v0.5h-0.9v2c0,0.4,0.1,0.7,0.5,0.7c0.2,0,0.3,0,0.4,0l0,0.5c-0.1,0.1-0.3,0.1-0.6,0.1
			c-0.3,0-0.6-0.1-0.7-0.3c-0.2-0.2-0.3-0.5-0.3-0.9v-2h-0.6v-0.5h0.6v-0.9L244.7,298.7z"/>
		<path class="st6" d="M246.7,301.7c0,0.9,0.6,1.3,1.2,1.3c0.5,0,0.8-0.1,1-0.2l0.1,0.5c-0.2,0.1-0.6,0.2-1.2,0.2
			c-1.1,0-1.8-0.7-1.8-1.8s0.6-2,1.7-2c1.2,0,1.5,1,1.5,1.7c0,0.1,0,0.2,0,0.3H246.7z M248.6,301.2c0-0.4-0.2-1.1-0.9-1.1
			c-0.7,0-1,0.6-1,1.1H248.6z"/>
		<path class="st6" d="M250.9,298.7v1h0.9v0.5h-0.9v2c0,0.4,0.1,0.7,0.5,0.7c0.2,0,0.3,0,0.4,0l0,0.5c-0.1,0.1-0.3,0.1-0.6,0.1
			c-0.3,0-0.6-0.1-0.7-0.3c-0.2-0.2-0.3-0.5-0.3-0.9v-2h-0.6v-0.5h0.6v-0.9L250.9,298.7z"/>
		<path class="st6" d="M255.6,302.4c0,0.4,0,0.7,0,1H255l0-0.6h0c-0.2,0.3-0.6,0.7-1.2,0.7c-0.6,0-1.2-0.3-1.2-1.6v-2.1h0.7v2
			c0,0.7,0.2,1.2,0.8,1.2c0.4,0,0.7-0.3,0.9-0.6c0-0.1,0.1-0.2,0.1-0.3v-2.2h0.7V302.4z"/>
		<path class="st6" d="M257,301.7c0,0.9,0.6,1.3,1.2,1.3c0.5,0,0.8-0.1,1-0.2l0.1,0.5c-0.2,0.1-0.6,0.2-1.2,0.2
			c-1.1,0-1.8-0.7-1.8-1.8s0.6-2,1.7-2c1.2,0,1.5,1,1.5,1.7c0,0.1,0,0.2,0,0.3H257z M259,301.2c0-0.4-0.2-1.1-0.9-1.1
			c-0.7,0-1,0.6-1,1.1H259z"/>
		<path class="st6" d="M260.4,300.9c0-0.4,0-0.8,0-1.1h0.6l0,0.7h0c0.2-0.5,0.6-0.8,1-0.8c0.1,0,0.1,0,0.2,0v0.6c-0.1,0-0.1,0-0.2,0
			c-0.5,0-0.8,0.4-0.9,0.8c0,0.1,0,0.2,0,0.3v1.9h-0.7V300.9z"/>
		<path class="st6" d="M138.3,312.4l-0.1-0.5h0c-0.2,0.3-0.6,0.5-1.1,0.5c-0.7,0-1.1-0.5-1.1-1c0-0.9,0.8-1.4,2.2-1.3V310
			c0-0.3-0.1-0.8-0.8-0.8c-0.3,0-0.7,0.1-0.9,0.3l-0.1-0.4c0.3-0.2,0.7-0.3,1.2-0.3c1.1,0,1.4,0.8,1.4,1.5v1.4c0,0.3,0,0.6,0.1,0.9
			H138.3z M138.2,310.5c-0.7,0-1.5,0.1-1.5,0.8c0,0.4,0.3,0.6,0.6,0.6c0.5,0,0.8-0.3,0.9-0.6c0-0.1,0-0.1,0-0.2V310.5z"/>
		<path class="st6" d="M143.1,307.1v4.4c0,0.3,0,0.7,0,0.9h-0.6l0-0.6h0c-0.2,0.4-0.6,0.7-1.2,0.7c-0.9,0-1.5-0.7-1.5-1.8
			c0-1.2,0.7-1.9,1.6-1.9c0.6,0,0.9,0.3,1.1,0.6h0v-2.2H143.1z M142.4,310.2c0-0.1,0-0.2,0-0.3c-0.1-0.4-0.5-0.8-0.9-0.8
			c-0.7,0-1.1,0.6-1.1,1.4c0,0.7,0.4,1.3,1.1,1.3c0.4,0,0.8-0.3,1-0.8c0-0.1,0-0.2,0-0.3V310.2z"/>
		<path class="st6" d="M144.9,307.7c0,0.2-0.2,0.4-0.4,0.4c-0.2,0-0.4-0.2-0.4-0.4c0-0.2,0.2-0.4,0.4-0.4
			C144.7,307.3,144.9,307.5,144.9,307.7z M144.2,312.4v-3.6h0.7v3.6H144.2z"/>
		<path class="st6" d="M145.9,309.9c0-0.5,0-0.8,0-1.2h0.6l0,0.6h0c0.3-0.4,0.7-0.7,1.3-0.7c0.9,0,1.5,0.7,1.5,1.8
			c0,1.3-0.8,1.9-1.6,1.9c-0.5,0-0.9-0.2-1.1-0.6h0v2h-0.7V309.9z M146.6,310.9c0,0.1,0,0.2,0,0.3c0.1,0.5,0.5,0.8,1,0.8
			c0.7,0,1.1-0.6,1.1-1.4c0-0.7-0.4-1.3-1.1-1.3c-0.4,0-0.9,0.3-1,0.8c0,0.1,0,0.2,0,0.3V310.9z"/>
		<path class="st6" d="M150.9,307.7c0,0.2-0.2,0.4-0.4,0.4c-0.2,0-0.4-0.2-0.4-0.4c0-0.2,0.2-0.4,0.4-0.4
			C150.7,307.3,150.9,307.5,150.9,307.7z M150.2,312.4v-3.6h0.7v3.6H150.2z"/>
		<path class="st6" d="M151.8,311.7c0.2,0.1,0.5,0.3,0.9,0.3c0.5,0,0.7-0.2,0.7-0.5c0-0.3-0.2-0.5-0.7-0.7c-0.7-0.2-1-0.6-1-1
			c0-0.6,0.5-1.1,1.2-1.1c0.4,0,0.7,0.1,0.9,0.2l-0.2,0.5c-0.1-0.1-0.4-0.2-0.7-0.2c-0.4,0-0.6,0.2-0.6,0.5c0,0.3,0.2,0.4,0.7,0.6
			c0.6,0.2,0.9,0.6,0.9,1.1c0,0.6-0.5,1.1-1.4,1.1c-0.4,0-0.8-0.1-1-0.2L151.8,311.7z"/>
		<path class="st6" d="M157.5,312.2c-0.2,0.1-0.6,0.2-1,0.2c-1.1,0-1.8-0.7-1.8-1.8c0-1.1,0.8-1.9,1.9-1.9c0.4,0,0.7,0.1,0.9,0.2
			l-0.1,0.5c-0.2-0.1-0.4-0.2-0.8-0.2c-0.8,0-1.3,0.6-1.3,1.4c0,0.8,0.5,1.4,1.3,1.4c0.4,0,0.6-0.1,0.8-0.2L157.5,312.2z"/>
		<path class="st6" d="M159,307.7c0,0.2-0.2,0.4-0.4,0.4c-0.2,0-0.4-0.2-0.4-0.4c0-0.2,0.2-0.4,0.4-0.4
			C158.8,307.3,159,307.5,159,307.7z M158.2,312.4v-3.6h0.7v3.6H158.2z"/>
		<path class="st6" d="M160,309.7c0-0.4,0-0.7,0-1h0.6l0,0.6h0c0.2-0.3,0.6-0.7,1.2-0.7c0.5,0,1.3,0.3,1.3,1.5v2.2h-0.7v-2.1
			c0-0.6-0.2-1.1-0.8-1.1c-0.4,0-0.8,0.3-0.9,0.7c0,0.1,0,0.2,0,0.3v2.2H160V309.7z"/>
		<path class="st6" d="M167.3,308.8c0,0.3,0,0.6,0,1v2.1c0,0.8-0.2,1.3-0.5,1.7c-0.4,0.3-0.9,0.4-1.3,0.4c-0.4,0-0.9-0.1-1.2-0.3
			l0.2-0.5c0.2,0.1,0.6,0.3,1.1,0.3c0.7,0,1.2-0.4,1.2-1.3v-0.4h0c-0.2,0.3-0.6,0.6-1.2,0.6c-0.9,0-1.5-0.8-1.5-1.8
			c0-1.2,0.8-1.9,1.6-1.9c0.6,0,1,0.3,1.1,0.6h0l0-0.5H167.3z M166.6,310.2c0-0.1,0-0.2,0-0.3c-0.1-0.4-0.4-0.7-0.9-0.7
			c-0.6,0-1.1,0.5-1.1,1.4c0,0.7,0.4,1.3,1.1,1.3c0.4,0,0.8-0.3,0.9-0.7c0-0.1,0.1-0.2,0.1-0.4V310.2z"/>
		<path class="st6" d="M170.3,310.7c0,0.9,0.6,1.3,1.2,1.3c0.5,0,0.8-0.1,1-0.2l0.1,0.5c-0.2,0.1-0.6,0.2-1.2,0.2
			c-1.1,0-1.8-0.7-1.8-1.8s0.6-2,1.7-2c1.2,0,1.5,1,1.5,1.7c0,0.1,0,0.2,0,0.3H170.3z M172.2,310.2c0-0.4-0.2-1.1-0.9-1.1
			c-0.7,0-1,0.6-1,1.1H172.2z"/>
		<path class="st6" d="M173.7,307.1h0.7v5.3h-0.7V307.1z"/>
		<path class="st6" d="M176.1,307.7c0,0.2-0.2,0.4-0.4,0.4c-0.2,0-0.4-0.2-0.4-0.4c0-0.2,0.2-0.4,0.4-0.4
			C176,307.3,176.1,307.5,176.1,307.7z M175.4,312.4v-3.6h0.7v3.6H175.4z"/>
		<path class="st6" d="M178,307.7v1h0.9v0.5H178v2c0,0.4,0.1,0.7,0.5,0.7c0.2,0,0.3,0,0.4,0l0,0.5c-0.1,0.1-0.3,0.1-0.6,0.1
			c-0.3,0-0.6-0.1-0.7-0.3c-0.2-0.2-0.3-0.5-0.3-0.9v-2h-0.6v-0.5h0.6v-0.9L178,307.7z"/>
		<path class="st6" d="M179.5,312c0-0.3,0.2-0.5,0.4-0.5c0.3,0,0.4,0.2,0.4,0.5c0,0.3-0.2,0.5-0.4,0.5
			C179.6,312.5,179.5,312.3,179.5,312z"/>
		<path class="st6" d="M182.8,312.4v-5h0.7l1.6,2.5c0.4,0.6,0.7,1.1,0.9,1.6l0,0c-0.1-0.7-0.1-1.3-0.1-2.1v-2.1h0.6v5h-0.7l-1.6-2.6
			c-0.4-0.6-0.7-1.1-0.9-1.7l0,0c0,0.6,0.1,1.2,0.1,2.1v2.2H182.8z"/>
		<path class="st6" d="M189.7,312.4l-0.1-0.5h0c-0.2,0.3-0.6,0.5-1.1,0.5c-0.7,0-1.1-0.5-1.1-1c0-0.9,0.8-1.4,2.2-1.3V310
			c0-0.3-0.1-0.8-0.8-0.8c-0.3,0-0.7,0.1-0.9,0.3l-0.1-0.4c0.3-0.2,0.7-0.3,1.2-0.3c1.1,0,1.4,0.8,1.4,1.5v1.4c0,0.3,0,0.6,0.1,0.9
			H189.7z M189.6,310.5c-0.7,0-1.5,0.1-1.5,0.8c0,0.4,0.3,0.6,0.6,0.6c0.5,0,0.8-0.3,0.9-0.6c0-0.1,0-0.1,0-0.2V310.5z"/>
		<path class="st6" d="M191.3,309.7c0-0.4,0-0.7,0-1h0.6l0,0.6h0c0.2-0.3,0.5-0.7,1.1-0.7c0.5,0,0.9,0.3,1,0.7h0
			c0.1-0.2,0.3-0.4,0.4-0.5c0.2-0.2,0.5-0.3,0.8-0.3c0.5,0,1.2,0.3,1.2,1.6v2.1h-0.6v-2c0-0.7-0.3-1.1-0.8-1.1
			c-0.4,0-0.7,0.3-0.8,0.6c0,0.1-0.1,0.2-0.1,0.3v2.2h-0.6v-2.2c0-0.6-0.3-1-0.8-1c-0.4,0-0.7,0.3-0.8,0.7c0,0.1-0.1,0.2-0.1,0.3
			v2.2h-0.6V309.7z"/>
		<path class="st6" d="M201.7,312.2c-0.2,0.1-0.6,0.2-1,0.2c-1.1,0-1.8-0.7-1.8-1.8c0-1.1,0.8-1.9,1.9-1.9c0.4,0,0.7,0.1,0.9,0.2
			l-0.1,0.5c-0.2-0.1-0.4-0.2-0.8-0.2c-0.8,0-1.3,0.6-1.3,1.4c0,0.8,0.5,1.4,1.3,1.4c0.4,0,0.6-0.1,0.8-0.2L201.7,312.2z"/>
		<path class="st6" d="M205.5,311.4c0,0.4,0,0.7,0,1h-0.6l0-0.6h0c-0.2,0.3-0.6,0.7-1.2,0.7c-0.6,0-1.2-0.3-1.2-1.6v-2.1h0.7v2
			c0,0.7,0.2,1.2,0.8,1.2c0.4,0,0.7-0.3,0.9-0.6c0-0.1,0.1-0.2,0.1-0.3v-2.2h0.7V311.4z"/>
		<path class="st6" d="M206.6,309.9c0-0.4,0-0.8,0-1.1h0.6l0,0.7h0c0.2-0.5,0.6-0.8,1-0.8c0.1,0,0.1,0,0.2,0v0.6c-0.1,0-0.1,0-0.2,0
			c-0.5,0-0.8,0.4-0.9,0.8c0,0.1,0,0.2,0,0.3v1.9h-0.7V309.9z"/>
		<path class="st6" d="M208.9,311.7c0.2,0.1,0.5,0.3,0.9,0.3c0.5,0,0.7-0.2,0.7-0.5c0-0.3-0.2-0.5-0.7-0.7c-0.7-0.2-1-0.6-1-1
			c0-0.6,0.5-1.1,1.2-1.1c0.4,0,0.7,0.1,0.9,0.2l-0.2,0.5c-0.1-0.1-0.4-0.2-0.7-0.2c-0.4,0-0.6,0.2-0.6,0.5c0,0.3,0.2,0.4,0.7,0.6
			c0.6,0.2,0.9,0.6,0.9,1.1c0,0.6-0.5,1.1-1.4,1.1c-0.4,0-0.8-0.1-1-0.2L208.9,311.7z"/>
		<path class="st6" d="M215,311.4c0,0.4,0,0.7,0,1h-0.6l0-0.6h0c-0.2,0.3-0.6,0.7-1.2,0.7c-0.6,0-1.2-0.3-1.2-1.6v-2.1h0.7v2
			c0,0.7,0.2,1.2,0.8,1.2c0.4,0,0.7-0.3,0.9-0.6c0-0.1,0.1-0.2,0.1-0.3v-2.2h0.7V311.4z"/>
		<path class="st6" d="M216,311.7c0.2,0.1,0.5,0.3,0.9,0.3c0.5,0,0.7-0.2,0.7-0.5c0-0.3-0.2-0.5-0.7-0.7c-0.7-0.2-1-0.6-1-1
			c0-0.6,0.5-1.1,1.2-1.1c0.4,0,0.7,0.1,0.9,0.2l-0.2,0.5c-0.1-0.1-0.4-0.2-0.7-0.2c-0.4,0-0.6,0.2-0.6,0.5c0,0.3,0.2,0.4,0.7,0.6
			c0.6,0.2,0.9,0.6,0.9,1.1c0,0.6-0.5,1.1-1.4,1.1c-0.4,0-0.8-0.1-1-0.2L216,311.7z"/>
		<path class="st6" d="M218.8,312c0-0.3,0.2-0.5,0.4-0.5c0.3,0,0.4,0.2,0.4,0.5c0,0.3-0.2,0.5-0.4,0.5
			C219,312.5,218.8,312.3,218.8,312z"/>
		<path class="st6" d="M226.4,310.2c0-0.7-0.1-1.5-0.1-2.2h0c-0.2,0.6-0.4,1.2-0.6,1.9l-0.9,2.4h-0.5l-0.8-2.4
			c-0.2-0.7-0.4-1.4-0.6-2h0c0,0.6-0.1,1.5-0.1,2.2l-0.1,2.2H222l0.4-5h0.8l0.9,2.4c0.2,0.6,0.4,1.2,0.5,1.7h0
			c0.1-0.5,0.3-1.1,0.5-1.7l0.9-2.4h0.8l0.3,5h-0.6L226.4,310.2z"/>
		<path class="st6" d="M231.5,310.5c0,1.3-0.9,1.9-1.8,1.9c-1,0-1.7-0.7-1.7-1.9c0-1.2,0.8-1.9,1.8-1.9
			C230.8,308.7,231.5,309.4,231.5,310.5z M228.6,310.6c0,0.8,0.5,1.4,1.1,1.4c0.6,0,1.1-0.6,1.1-1.4c0-0.6-0.3-1.4-1.1-1.4
			C228.9,309.2,228.6,309.9,228.6,310.6z"/>
		<path class="st6" d="M232.3,309.9c0-0.4,0-0.8,0-1.1h0.6l0,0.7h0c0.2-0.5,0.6-0.8,1-0.8c0.1,0,0.1,0,0.2,0v0.6c-0.1,0-0.1,0-0.2,0
			c-0.5,0-0.8,0.4-0.9,0.8c0,0.1,0,0.2,0,0.3v1.9h-0.7V309.9z"/>
		<path class="st6" d="M234.7,312.4c0-0.2,0-0.6,0-0.9v-4.4h0.7v2.3h0c0.2-0.4,0.7-0.7,1.2-0.7c0.9,0,1.5,0.7,1.5,1.8
			c0,1.3-0.8,1.9-1.6,1.9c-0.5,0-0.9-0.2-1.2-0.7h0l0,0.6H234.7z M235.4,310.9c0,0.1,0,0.2,0,0.2c0.1,0.5,0.5,0.8,1,0.8
			c0.7,0,1.1-0.6,1.1-1.4c0-0.7-0.4-1.3-1.1-1.3c-0.4,0-0.9,0.3-1,0.8c0,0.1,0,0.2,0,0.3V310.9z"/>
		<path class="st6" d="M239.8,307.7c0,0.2-0.2,0.4-0.4,0.4c-0.2,0-0.4-0.2-0.4-0.4c0-0.2,0.2-0.4,0.4-0.4
			C239.6,307.3,239.8,307.5,239.8,307.7z M239,312.4v-3.6h0.7v3.6H239z"/>
		<path class="st6" d="M245.4,311.4c0,0.4,0,0.7,0,1h-0.6l0-0.6h0c-0.2,0.3-0.6,0.7-1.2,0.7c-0.6,0-1.2-0.3-1.2-1.6v-2.1h0.7v2
			c0,0.7,0.2,1.2,0.8,1.2c0.4,0,0.7-0.3,0.9-0.6c0-0.1,0.1-0.2,0.1-0.3v-2.2h0.7V311.4z"/>
		<path class="st6" d="M247.3,307.7v1h0.9v0.5h-0.9v2c0,0.4,0.1,0.7,0.5,0.7c0.2,0,0.3,0,0.4,0l0,0.5c-0.1,0.1-0.3,0.1-0.6,0.1
			c-0.3,0-0.6-0.1-0.7-0.3c-0.2-0.2-0.3-0.5-0.3-0.9v-2h-0.6v-0.5h0.6v-0.9L247.3,307.7z"/>
		<path class="st6" d="M250.6,309.7c0-0.4,0-0.7,0-1h0.6l0,0.6h0c0.2-0.3,0.5-0.7,1.1-0.7c0.5,0,0.9,0.3,1,0.7h0
			c0.1-0.2,0.3-0.4,0.4-0.5c0.2-0.2,0.5-0.3,0.8-0.3c0.5,0,1.2,0.3,1.2,1.6v2.1h-0.6v-2c0-0.7-0.3-1.1-0.8-1.1
			c-0.4,0-0.7,0.3-0.8,0.6c0,0.1-0.1,0.2-0.1,0.3v2.2h-0.6v-2.2c0-0.6-0.3-1-0.8-1c-0.4,0-0.7,0.3-0.8,0.7c0,0.1-0.1,0.2-0.1,0.3
			v2.2h-0.6V309.7z"/>
		<path class="st6" d="M257.5,307.7c0,0.2-0.2,0.4-0.4,0.4c-0.2,0-0.4-0.2-0.4-0.4c0-0.2,0.2-0.4,0.4-0.4
			C257.4,307.3,257.5,307.5,257.5,307.7z M256.8,312.4v-3.6h0.7v3.6H256.8z"/>
		<path class="st6" d="M258.4,312c0-0.3,0.2-0.5,0.4-0.5c0.3,0,0.4,0.2,0.4,0.5c0,0.3-0.2,0.5-0.4,0.5
			C258.6,312.5,258.4,312.3,258.4,312z"/>
		<path class="st6" d="M154.8,321.4v-5h0.7l1.6,2.5c0.4,0.6,0.7,1.1,0.9,1.6l0,0c-0.1-0.7-0.1-1.3-0.1-2.1v-2.1h0.6v5H158l-1.6-2.6
			c-0.4-0.6-0.7-1.1-0.9-1.7l0,0c0,0.6,0.1,1.2,0.1,2.1v2.2H154.8z"/>
		<path class="st6" d="M162.8,320.4c0,0.4,0,0.7,0,1h-0.6l0-0.6h0c-0.2,0.3-0.6,0.7-1.2,0.7c-0.6,0-1.2-0.3-1.2-1.6v-2.1h0.7v2
			c0,0.7,0.2,1.2,0.8,1.2c0.4,0,0.7-0.3,0.9-0.6c0-0.1,0.1-0.2,0.1-0.3v-2.2h0.7V320.4z"/>
		<path class="st6" d="M163.9,316h0.7v5.3h-0.7V316z"/>
		<path class="st6" d="M165.6,316h0.7v5.3h-0.7V316z"/>
		<path class="st6" d="M169.4,321.4l-0.1-0.5h0c-0.2,0.3-0.6,0.5-1.1,0.5c-0.7,0-1.1-0.5-1.1-1c0-0.9,0.8-1.4,2.2-1.3V319
			c0-0.3-0.1-0.8-0.8-0.8c-0.3,0-0.7,0.1-0.9,0.3l-0.1-0.4c0.3-0.2,0.7-0.3,1.2-0.3c1.1,0,1.4,0.8,1.4,1.5v1.4c0,0.3,0,0.6,0.1,0.9
			H169.4z M169.3,319.5c-0.7,0-1.5,0.1-1.5,0.8c0,0.4,0.3,0.6,0.6,0.6c0.5,0,0.8-0.3,0.9-0.6c0-0.1,0-0.1,0-0.2V319.5z"/>
		<path class="st6" d="M171,318.7c0-0.4,0-0.7,0-1h0.6l0,0.6h0c0.2-0.3,0.5-0.7,1.1-0.7c0.5,0,0.9,0.3,1,0.7h0
			c0.1-0.2,0.3-0.4,0.4-0.5c0.2-0.2,0.5-0.3,0.8-0.3c0.5,0,1.2,0.3,1.2,1.6v2.1h-0.6v-2c0-0.7-0.3-1.1-0.8-1.1
			c-0.4,0-0.7,0.3-0.8,0.6c0,0.1-0.1,0.2-0.1,0.3v2.2h-0.6v-2.2c0-0.6-0.3-1-0.8-1c-0.4,0-0.7,0.3-0.8,0.7c0,0.1-0.1,0.2-0.1,0.3
			v2.2H171V318.7z"/>
		<path class="st6" d="M179.2,319.7c0,0.9,0.6,1.3,1.2,1.3c0.5,0,0.8-0.1,1-0.2l0.1,0.5c-0.2,0.1-0.6,0.2-1.2,0.2
			c-1.1,0-1.8-0.7-1.8-1.8s0.6-2,1.7-2c1.2,0,1.5,1,1.5,1.7c0,0.1,0,0.2,0,0.3H179.2z M181.1,319.2c0-0.4-0.2-1.1-0.9-1.1
			c-0.7,0-1,0.6-1,1.1H181.1z"/>
		<path class="st6" d="M182.6,318.7c0-0.4,0-0.7,0-1h0.6l0,0.6h0c0.2-0.3,0.6-0.7,1.2-0.7c0.5,0,1.3,0.3,1.3,1.5v2.2H185v-2.1
			c0-0.6-0.2-1.1-0.8-1.1c-0.4,0-0.8,0.3-0.9,0.7c0,0.1,0,0.2,0,0.3v2.2h-0.7V318.7z"/>
		<path class="st6" d="M187.5,316.7c0,0.2-0.2,0.4-0.4,0.4c-0.2,0-0.4-0.2-0.4-0.4c0-0.2,0.2-0.4,0.4-0.4
			C187.3,316.3,187.5,316.5,187.5,316.7z M186.7,321.4v-3.6h0.7v3.6H186.7z"/>
		<path class="st6" d="M188.5,318.7c0-0.4,0-0.7,0-1h0.6l0,0.6h0c0.2-0.3,0.5-0.7,1.1-0.7c0.5,0,0.9,0.3,1,0.7h0
			c0.1-0.2,0.3-0.4,0.4-0.5c0.2-0.2,0.5-0.3,0.8-0.3c0.5,0,1.2,0.3,1.2,1.6v2.1H193v-2c0-0.7-0.3-1.1-0.8-1.1
			c-0.4,0-0.7,0.3-0.8,0.6c0,0.1-0.1,0.2-0.1,0.3v2.2h-0.6v-2.2c0-0.6-0.3-1-0.8-1c-0.4,0-0.7,0.3-0.8,0.7c0,0.1-0.1,0.2-0.1,0.3
			v2.2h-0.6V318.7z"/>
		<path class="st6" d="M196.3,316h0.7v5.3h-0.7V316z"/>
		<path class="st6" d="M198.4,319.7c0,0.9,0.6,1.3,1.2,1.3c0.5,0,0.8-0.1,1-0.2l0.1,0.5c-0.2,0.1-0.6,0.2-1.2,0.2
			c-1.1,0-1.8-0.7-1.8-1.8s0.6-2,1.7-2c1.2,0,1.5,1,1.5,1.7c0,0.1,0,0.2,0,0.3H198.4z M200.4,319.2c0-0.4-0.2-1.1-0.9-1.1
			c-0.7,0-1,0.6-1,1.1H200.4z"/>
		<path class="st6" d="M205.1,319.5c0,1.3-0.9,1.9-1.8,1.9c-1,0-1.7-0.7-1.7-1.9c0-1.2,0.8-1.9,1.8-1.9
			C204.4,317.7,205.1,318.4,205.1,319.5z M202.2,319.6c0,0.8,0.5,1.4,1.1,1.4c0.6,0,1.1-0.6,1.1-1.4c0-0.6-0.3-1.4-1.1-1.4
			C202.6,318.1,202.2,318.9,202.2,319.6z"/>
		<path class="st6" d="M205.3,322.3c0.2-0.4,0.4-1.2,0.4-1.8l0.7-0.1c-0.2,0.6-0.5,1.5-0.7,1.8L205.3,322.3z"/>
		<path class="st6" d="M209.3,319.7c0,0.9,0.6,1.3,1.2,1.3c0.5,0,0.8-0.1,1-0.2l0.1,0.5c-0.2,0.1-0.6,0.2-1.2,0.2
			c-1.1,0-1.8-0.7-1.8-1.8s0.6-2,1.7-2c1.2,0,1.5,1,1.5,1.7c0,0.1,0,0.2,0,0.3H209.3z M211.2,319.2c0-0.4-0.2-1.1-0.9-1.1
			c-0.7,0-1,0.6-1,1.1H211.2z"/>
		<path class="st6" d="M215.8,317.7c0,0.3,0,0.6,0,1v2.1c0,0.8-0.2,1.3-0.5,1.7c-0.4,0.3-0.9,0.4-1.3,0.4c-0.4,0-0.9-0.1-1.2-0.3
			l0.2-0.5c0.2,0.1,0.6,0.3,1.1,0.3c0.7,0,1.2-0.4,1.2-1.3v-0.4h0c-0.2,0.3-0.6,0.6-1.2,0.6c-0.9,0-1.5-0.8-1.5-1.8
			c0-1.2,0.8-1.9,1.6-1.9c0.6,0,1,0.3,1.1,0.6h0l0-0.5H215.8z M215.1,319.2c0-0.1,0-0.2,0-0.3c-0.1-0.4-0.4-0.7-0.9-0.7
			c-0.6,0-1.1,0.5-1.1,1.4c0,0.7,0.4,1.3,1.1,1.3c0.4,0,0.8-0.3,0.9-0.7c0-0.1,0.1-0.2,0.1-0.4V319.2z"/>
		<path class="st6" d="M217.2,319.7c0,0.9,0.6,1.3,1.2,1.3c0.5,0,0.8-0.1,1-0.2l0.1,0.5c-0.2,0.1-0.6,0.2-1.2,0.2
			c-1.1,0-1.8-0.7-1.8-1.8s0.6-2,1.7-2c1.2,0,1.5,1,1.5,1.7c0,0.1,0,0.2,0,0.3H217.2z M219.1,319.2c0-0.4-0.2-1.1-0.9-1.1
			c-0.7,0-1,0.6-1,1.1H219.1z"/>
		<path class="st6" d="M220.5,320.7c0.2,0.1,0.5,0.3,0.9,0.3c0.5,0,0.7-0.2,0.7-0.5c0-0.3-0.2-0.5-0.7-0.7c-0.7-0.2-1-0.6-1-1
			c0-0.6,0.5-1.1,1.2-1.1c0.4,0,0.7,0.1,0.9,0.2l-0.2,0.5c-0.1-0.1-0.4-0.2-0.7-0.2c-0.4,0-0.6,0.2-0.6,0.5c0,0.3,0.2,0.4,0.7,0.6
			c0.6,0.2,0.9,0.6,0.9,1.1c0,0.6-0.5,1.1-1.4,1.1c-0.4,0-0.8-0.1-1-0.2L220.5,320.7z"/>
		<path class="st6" d="M224.3,316.7v1h0.9v0.5h-0.9v2c0,0.4,0.1,0.7,0.5,0.7c0.2,0,0.3,0,0.4,0l0,0.5c-0.1,0.1-0.3,0.1-0.6,0.1
			c-0.3,0-0.6-0.1-0.7-0.3c-0.2-0.2-0.3-0.5-0.3-0.9v-2h-0.6v-0.5h0.6v-0.9L224.3,316.7z"/>
		<path class="st6" d="M228,321.4l-0.1-0.5h0c-0.2,0.3-0.6,0.5-1.1,0.5c-0.7,0-1.1-0.5-1.1-1c0-0.9,0.8-1.4,2.2-1.3V319
			c0-0.3-0.1-0.8-0.8-0.8c-0.3,0-0.7,0.1-0.9,0.3L226,318c0.3-0.2,0.7-0.3,1.2-0.3c1.1,0,1.4,0.8,1.4,1.5v1.4c0,0.3,0,0.6,0.1,0.9
			H228z M227.9,319.5c-0.7,0-1.5,0.1-1.5,0.8c0,0.4,0.3,0.6,0.6,0.6c0.5,0,0.8-0.3,0.9-0.6c0-0.1,0-0.1,0-0.2V319.5z"/>
		<path class="st6" d="M229.5,320.7c0.2,0.1,0.5,0.3,0.9,0.3c0.5,0,0.7-0.2,0.7-0.5c0-0.3-0.2-0.5-0.7-0.7c-0.7-0.2-1-0.6-1-1
			c0-0.6,0.5-1.1,1.2-1.1c0.4,0,0.7,0.1,0.9,0.2l-0.2,0.5c-0.1-0.1-0.4-0.2-0.7-0.2c-0.4,0-0.6,0.2-0.6,0.5c0,0.3,0.2,0.4,0.7,0.6
			c0.6,0.2,0.9,0.6,0.9,1.1c0,0.6-0.5,1.1-1.4,1.1c-0.4,0-0.8-0.1-1-0.2L229.5,320.7z"/>
		<path class="st6" d="M234.9,316.7c0,0.2-0.2,0.4-0.4,0.4c-0.2,0-0.4-0.2-0.4-0.4c0-0.2,0.2-0.4,0.4-0.4
			C234.7,316.3,234.9,316.5,234.9,316.7z M234.2,321.4v-3.6h0.7v3.6H234.2z"/>
		<path class="st6" d="M239,316v4.4c0,0.3,0,0.7,0,0.9h-0.6l0-0.6h0c-0.2,0.4-0.6,0.7-1.2,0.7c-0.9,0-1.5-0.7-1.5-1.8
			c0-1.2,0.7-1.9,1.6-1.9c0.6,0,0.9,0.3,1.1,0.6h0V316H239z M238.4,319.2c0-0.1,0-0.2,0-0.3c-0.1-0.4-0.5-0.8-0.9-0.8
			c-0.7,0-1.1,0.6-1.1,1.4c0,0.7,0.4,1.3,1.1,1.3c0.4,0,0.8-0.3,1-0.8c0-0.1,0-0.2,0-0.3V319.2z"/>
		<path class="st6" d="M239.9,321c0-0.3,0.2-0.5,0.4-0.5c0.3,0,0.4,0.2,0.4,0.5c0,0.3-0.2,0.5-0.4,0.5
			C240.1,321.4,239.9,321.2,239.9,321z"/>
	</g>
	<g>
		<g>
			<path class="st4" d="M47.2,265.5v8.7c0,3.3,1.5,4.7,3.4,4.7c2.2,0,3.6-1.4,3.6-4.7v-8.7h1.9v8.6c0,4.5-2.4,6.4-5.6,6.4
				c-3,0-5.3-1.7-5.3-6.3v-8.6H47.2z"/>
			<path class="st4" d="M63.8,280.1v-14.7h2.1l4.7,7.4c1.1,1.7,1.9,3.3,2.6,4.8l0,0c-0.2-2-0.2-3.7-0.2-6v-6.1h1.8v14.7h-1.9
				l-4.7-7.4c-1-1.6-2-3.3-2.7-4.9l-0.1,0c0.1,1.9,0.2,3.6,0.2,6.1v6.3H63.8z"/>
			<path class="st4" d="M82.5,265.7c1.2-0.2,2.5-0.3,4-0.3c2.7,0,4.7,0.6,5.9,1.8c1.3,1.2,2.1,2.9,2.1,5.3c0,2.4-0.7,4.4-2.1,5.7
				c-1.4,1.4-3.6,2.1-6.5,2.1c-1.4,0-2.5-0.1-3.4-0.2V265.7z M84.4,278.6c0.5,0.1,1.2,0.1,1.9,0.1c4,0,6.2-2.3,6.2-6.2
				c0-3.5-1.9-5.7-5.9-5.7c-1,0-1.7,0.1-2.2,0.2V278.6z"/>
			<path class="st4" d="M108.9,273.2h-5.7v5.3h6.4v1.6h-8.3v-14.7h7.9v1.6h-6v4.6h5.7V273.2z"/>
			<path class="st4" d="M116.4,265.7c1-0.2,2.3-0.3,3.6-0.3c2,0,3.3,0.4,4.2,1.2c0.7,0.7,1.2,1.7,1.2,2.8c0,1.9-1.2,3.2-2.8,3.7v0.1
				c1.1,0.4,1.8,1.4,2.2,3c0.5,2,0.8,3.5,1.1,4h-2c-0.2-0.4-0.6-1.7-1-3.5c-0.4-2-1.2-2.8-2.9-2.9h-1.8v6.4h-1.9V265.7z
				 M118.3,272.3h1.9c2,0,3.3-1.1,3.3-2.8c0-1.9-1.4-2.7-3.4-2.7c-0.9,0-1.6,0.1-1.9,0.2V272.3z"/>
			<path class="st4" d="M151.7,279.7c-0.7,0.3-2.1,0.7-3.9,0.7c-4.1,0-7.3-2.6-7.3-7.4c0-4.6,3.1-7.7,7.7-7.7c1.8,0,3,0.4,3.5,0.7
				l-0.5,1.5c-0.7-0.3-1.7-0.6-3-0.6c-3.4,0-5.7,2.2-5.7,6.1c0,3.6,2.1,5.9,5.6,5.9c1.2,0,2.3-0.2,3.1-0.6L151.7,279.7z"/>
			<path class="st4" d="M170.5,272.6c0,5.1-3.1,7.7-6.8,7.7c-3.9,0-6.6-3-6.6-7.4c0-4.7,2.9-7.7,6.8-7.7
				C167.9,265.2,170.5,268.3,170.5,272.6z M159.1,272.9c0,3.1,1.7,5.9,4.7,5.9c3,0,4.7-2.8,4.7-6.1c0-2.9-1.5-6-4.7-6
				C160.7,266.8,159.1,269.7,159.1,272.9z"/>
			<path class="st4" d="M177.4,280.1v-14.7h2.1l4.7,7.4c1.1,1.7,1.9,3.3,2.6,4.8l0,0c-0.2-2-0.2-3.7-0.2-6v-6.1h1.8v14.7h-1.9
				l-4.7-7.4c-1-1.6-2-3.3-2.7-4.9l-0.1,0c0.1,1.9,0.2,3.6,0.2,6.1v6.3H177.4z"/>
			<path class="st4" d="M195.8,277.8c0.8,0.5,2.1,1,3.4,1c1.9,0,3.1-1,3.1-2.5c0-1.4-0.8-2.2-2.8-2.9c-2.4-0.8-3.9-2.1-3.9-4.2
				c0-2.3,1.9-4,4.7-4c1.5,0,2.6,0.3,3.2,0.7l-0.5,1.5c-0.5-0.3-1.5-0.7-2.8-0.7c-2,0-2.8,1.2-2.8,2.2c0,1.4,0.9,2,2.9,2.8
				c2.5,1,3.7,2.2,3.7,4.3c0,2.3-1.7,4.2-5.1,4.2c-1.4,0-3-0.4-3.7-0.9L195.8,277.8z"/>
			<path class="st4" d="M213.9,267.1h-4.5v-1.6h10.9v1.6h-4.5v13.1h-1.9V267.1z"/>
			<path class="st4" d="M226.3,265.7c1-0.2,2.3-0.3,3.6-0.3c2,0,3.3,0.4,4.2,1.2c0.7,0.7,1.2,1.7,1.2,2.8c0,1.9-1.2,3.2-2.8,3.7v0.1
				c1.1,0.4,1.8,1.4,2.2,3c0.5,2,0.8,3.5,1.1,4h-2c-0.2-0.4-0.6-1.7-1-3.5c-0.4-2-1.2-2.8-2.9-2.9h-1.8v6.4h-1.9V265.7z
				 M228.2,272.3h1.9c2,0,3.3-1.1,3.3-2.8c0-1.9-1.4-2.7-3.4-2.7c-0.9,0-1.6,0.1-1.9,0.2V272.3z"/>
			<path class="st4" d="M244.3,265.5v8.7c0,3.3,1.5,4.7,3.4,4.7c2.2,0,3.6-1.4,3.6-4.7v-8.7h1.9v8.6c0,4.5-2.4,6.4-5.6,6.4
				c-3,0-5.3-1.7-5.3-6.3v-8.6H244.3z"/>
			<path class="st4" d="M271.1,279.7c-0.7,0.3-2.1,0.7-3.9,0.7c-4.1,0-7.3-2.6-7.3-7.4c0-4.6,3.1-7.7,7.7-7.7c1.8,0,3,0.4,3.5,0.7
				l-0.5,1.5c-0.7-0.3-1.7-0.6-3-0.6c-3.4,0-5.7,2.2-5.7,6.1c0,3.6,2.1,5.9,5.6,5.9c1.2,0,2.3-0.2,3.1-0.6L271.1,279.7z"/>
			<path class="st4" d="M281.2,267.1h-4.5v-1.6h10.9v1.6h-4.5v13.1h-1.9V267.1z"/>
			<path class="st4" d="M295.5,265.5v14.7h-1.9v-14.7H295.5z"/>
			<path class="st4" d="M315.7,272.6c0,5.1-3.1,7.7-6.8,7.7c-3.9,0-6.6-3-6.6-7.4c0-4.7,2.9-7.7,6.8-7.7
				C313.2,265.2,315.7,268.3,315.7,272.6z M304.4,272.9c0,3.1,1.7,5.9,4.7,5.9c3,0,4.7-2.8,4.7-6.1c0-2.9-1.5-6-4.7-6
				C305.9,266.8,304.4,269.7,304.4,272.9z"/>
			<path class="st4" d="M322.6,280.1v-14.7h2.1l4.7,7.4c1.1,1.7,1.9,3.3,2.6,4.8l0,0c-0.2-2-0.2-3.7-0.2-6v-6.1h1.8v14.7h-1.9
				l-4.7-7.4c-1-1.6-2-3.3-2.7-4.9l-0.1,0c0.1,1.9,0.2,3.6,0.2,6.1v6.3H322.6z"/>
		</g>
		<g>
			<path class="st5" d="M46.8,265v8.7c0,3.3,1.5,4.7,3.4,4.7c2.2,0,3.6-1.4,3.6-4.7V265h1.9v8.6c0,4.5-2.4,6.4-5.6,6.4
				c-3,0-5.3-1.7-5.3-6.3V265H46.8z"/>
			<path class="st5" d="M63.4,279.7V265h2.1l4.7,7.4c1.1,1.7,1.9,3.3,2.6,4.8l0,0c-0.2-2-0.2-3.7-0.2-6V265h1.8v14.7h-1.9l-4.7-7.4
				c-1-1.6-2-3.3-2.7-4.9l-0.1,0c0.1,1.9,0.2,3.6,0.2,6.1v6.3H63.4z"/>
			<path class="st5" d="M82.1,265.2c1.2-0.2,2.5-0.3,4-0.3c2.7,0,4.7,0.6,5.9,1.8c1.3,1.2,2.1,2.9,2.1,5.3c0,2.4-0.7,4.4-2.1,5.7
				c-1.4,1.4-3.6,2.1-6.5,2.1c-1.4,0-2.5-0.1-3.4-0.2V265.2z M84,278.2c0.5,0.1,1.2,0.1,1.9,0.1c4,0,6.2-2.3,6.2-6.2
				c0-3.5-1.9-5.7-5.9-5.7c-1,0-1.7,0.1-2.2,0.2V278.2z"/>
			<path class="st5" d="M108.5,272.8h-5.7v5.3h6.4v1.6h-8.3V265h7.9v1.6h-6v4.6h5.7V272.8z"/>
			<path class="st5" d="M116,265.2c1-0.2,2.3-0.3,3.6-0.3c2,0,3.3,0.4,4.2,1.2c0.7,0.7,1.2,1.7,1.2,2.8c0,1.9-1.2,3.2-2.8,3.7v0.1
				c1.1,0.4,1.8,1.4,2.2,3c0.5,2,0.8,3.5,1.1,4h-2c-0.2-0.4-0.6-1.7-1-3.5c-0.4-2-1.2-2.8-2.9-2.9h-1.8v6.4H116V265.2z M117.9,271.9
				h1.9c2,0,3.3-1.1,3.3-2.8c0-1.9-1.4-2.7-3.4-2.7c-0.9,0-1.6,0.1-1.9,0.2V271.9z"/>
			<path class="st5" d="M151.3,279.2c-0.7,0.3-2.1,0.7-3.9,0.7c-4.1,0-7.3-2.6-7.3-7.4c0-4.6,3.1-7.7,7.7-7.7c1.8,0,3,0.4,3.5,0.7
				l-0.5,1.5c-0.7-0.3-1.7-0.6-3-0.6c-3.4,0-5.7,2.2-5.7,6.1c0,3.6,2.1,5.9,5.6,5.9c1.2,0,2.3-0.2,3.1-0.6L151.3,279.2z"/>
			<path class="st5" d="M170.1,272.2c0,5.1-3.1,7.7-6.8,7.7c-3.9,0-6.6-3-6.6-7.4c0-4.7,2.9-7.7,6.8-7.7
				C167.5,264.8,170.1,267.8,170.1,272.2z M158.7,272.4c0,3.1,1.7,5.9,4.7,5.9c3,0,4.7-2.8,4.7-6.1c0-2.9-1.5-6-4.7-6
				C160.3,266.3,158.7,269.2,158.7,272.4z"/>
			<path class="st5" d="M177,279.7V265h2.1l4.7,7.4c1.1,1.7,1.9,3.3,2.6,4.8l0,0c-0.2-2-0.2-3.7-0.2-6V265h1.8v14.7h-1.9l-4.7-7.4
				c-1-1.6-2-3.3-2.7-4.9l-0.1,0c0.1,1.9,0.2,3.6,0.2,6.1v6.3H177z"/>
			<path class="st5" d="M195.4,277.4c0.8,0.5,2.1,1,3.4,1c1.9,0,3.1-1,3.1-2.5c0-1.4-0.8-2.2-2.8-2.9c-2.4-0.8-3.9-2.1-3.9-4.2
				c0-2.3,1.9-4,4.7-4c1.5,0,2.6,0.3,3.2,0.7l-0.5,1.5c-0.5-0.3-1.5-0.7-2.8-0.7c-2,0-2.8,1.2-2.8,2.2c0,1.4,0.9,2,2.9,2.8
				c2.5,1,3.7,2.2,3.7,4.3c0,2.3-1.7,4.2-5.1,4.2c-1.4,0-3-0.4-3.7-0.9L195.4,277.4z"/>
			<path class="st5" d="M213.5,266.6h-4.5V265h10.9v1.6h-4.5v13.1h-1.9V266.6z"/>
			<path class="st5" d="M225.9,265.2c1-0.2,2.3-0.3,3.6-0.3c2,0,3.3,0.4,4.2,1.2c0.7,0.7,1.2,1.7,1.2,2.8c0,1.9-1.2,3.2-2.8,3.7v0.1
				c1.1,0.4,1.8,1.4,2.2,3c0.5,2,0.8,3.5,1.1,4h-2c-0.2-0.4-0.6-1.7-1-3.5c-0.4-2-1.2-2.8-2.9-2.9h-1.8v6.4h-1.9V265.2z
				 M227.8,271.9h1.9c2,0,3.3-1.1,3.3-2.8c0-1.9-1.4-2.7-3.4-2.7c-0.9,0-1.6,0.1-1.9,0.2V271.9z"/>
			<path class="st5" d="M243.9,265v8.7c0,3.3,1.5,4.7,3.4,4.7c2.2,0,3.6-1.4,3.6-4.7V265h1.9v8.6c0,4.5-2.4,6.4-5.6,6.4
				c-3,0-5.3-1.7-5.3-6.3V265H243.9z"/>
			<path class="st5" d="M270.7,279.2c-0.7,0.3-2.1,0.7-3.9,0.7c-4.1,0-7.3-2.6-7.3-7.4c0-4.6,3.1-7.7,7.7-7.7c1.8,0,3,0.4,3.5,0.7
				l-0.5,1.5c-0.7-0.3-1.7-0.6-3-0.6c-3.4,0-5.7,2.2-5.7,6.1c0,3.6,2.1,5.9,5.6,5.9c1.2,0,2.3-0.2,3.1-0.6L270.7,279.2z"/>
			<path class="st5" d="M280.8,266.6h-4.5V265h10.9v1.6h-4.5v13.1h-1.9V266.6z"/>
			<path class="st5" d="M295.1,265v14.7h-1.9V265H295.1z"/>
			<path class="st5" d="M315.4,272.2c0,5.1-3.1,7.7-6.8,7.7c-3.9,0-6.6-3-6.6-7.4c0-4.7,2.9-7.7,6.8-7.7
				C312.8,264.8,315.4,267.8,315.4,272.2z M304,272.4c0,3.1,1.7,5.9,4.7,5.9c3,0,4.7-2.8,4.7-6.1c0-2.9-1.5-6-4.7-6
				C305.5,266.3,304,269.2,304,272.4z"/>
			<path class="st5" d="M322.2,279.7V265h2.1l4.7,7.4c1.1,1.7,1.9,3.3,2.6,4.8l0,0c-0.2-2-0.2-3.7-0.2-6V265h1.8v14.7h-1.9l-4.7-7.4
				c-1-1.6-2-3.3-2.7-4.9l-0.1,0c0.1,1.9,0.2,3.6,0.2,6.1v6.3H322.2z"/>
		</g>
	</g>
</g>
<g id="Web_Site">
	<g>
		<path class="st16" d="M175.9,46.1h-2.1l0.4,19h-23.8l0.4-19h-2.1l-3.9,183.7h2.1l0.4-19h30l0.4,19h2.1L175.9,46.1z M150.5,66.1
			h23.8l0.4,17.1h-24.5L150.5,66.1z M150.1,84.2h24.6l0.4,17.1h-25.3L150.1,84.2z M149.7,102.3h25.3l0.4,17.1h-26.1L149.7,102.3z
			 M149.3,120.4h26.1l0.4,17.1H149L149.3,120.4z M149,138.4h26.9l0.4,17.1h-27.6L149,138.4z M148.6,156.5h27.6l0.4,17.1h-28.4
			L148.6,156.5z M148.2,174.6h28.4l0.4,17.1h-29.1L148.2,174.6z M147.4,209.7l0.4-17.1H177l0.4,17.1H147.4z"/>
		<g>
			<g>
				<path class="st4" d="M369.8,50.1h-7.6c-1.2,0-2.2-1-2.2-2.2v-7.6c0-1.2,1-2.2,2.2-2.2h7.6c1.2,0,2.2,1,2.2,2.2v7.6
					C371.9,49.1,371,50.1,369.8,50.1z"/>
				<path class="st17" d="M368.8,46.7C368.8,46.7,368.8,46.7,368.8,46.7L368.8,46.7C368.8,46.7,368.8,46.7,368.8,46.7
					c-0.6-0.9-1.5-1.6-2.3-2.3c0.1-0.3,0.3-0.5,0.4-0.8c0.6-0.7,1.2-1.5,1.7-2.3c0.2-0.3-0.5-0.2-0.6,0c0,0-0.1,0.1-0.1,0.1
					c0,0,0,0,0,0c-0.1-0.2-0.6-0.1-0.6,0.1c-0.3,0.7-0.6,1.4-0.9,2.1c-0.1,0.1-0.1,0.2-0.2,0.2c0,0.1-0.1,0.1-0.1,0.2
					c-0.6-0.6-1.2-1.3-1.4-2.1c-0.1-0.2-0.7,0-0.7,0.2c0,0.1,0.1,0.2,0.1,0.2c0,0,0,0-0.1,0c-0.1,0-0.4,0.1-0.3,0.2
					c0.3,0.5,0.8,1,1.2,1.4c0.2,0.2,0.4,0.4,0.7,0.7c-0.2,0.3-0.4,0.5-0.5,0.8c-0.4,0.6-0.8,1.2-1.3,1.7c-0.2,0.3,0.4,0.2,0.5,0.1
					c0.2-0.1,0.2-0.2,0.3-0.3c0-0.1,0-0.1,0-0.1c0.1-0.1,0.2-0.3,0.3-0.4c0.1,0,0.2-0.1,0.3-0.1c0.3-0.3,0.6-0.7,0.9-1.1
					c0.7,0.6,1.3,1.3,2.1,1.8C368.2,47,368.9,46.9,368.8,46.7z"/>
			</g>
			<g>
				<path class="st4" d="M61.2,50.1h-7.6c-1.2,0-2.2-1-2.2-2.2v-7.6c0-1.2,1-2.2,2.2-2.2h7.6c1.2,0,2.2,1,2.2,2.2v7.6
					C63.4,49.1,62.4,50.1,61.2,50.1z"/>
				<path class="st17" d="M61.8,43.2c-0.2-2.1-2.6-3.4-4.5-3.2c-1.7,0.2-1.6,1.9-1.6,3.2c0,0.2,0.7,0.1,0.7-0.2
					c-0.1-1.3-0.3-3.3,2.3-2.5c1.2,0.4,2.2,1.6,2.5,2.9c0.5,2.1-1.9,4.5-4,3.8c-0.7-0.2-1.3-1-1.8-1.6c0.6,0.2,1.3,0.2,1.9,0.5
					c0.2,0.1,0.8-0.2,0.5-0.3c-1.1-0.4-2.2-0.9-3.3-1.5c0,0-0.1-0.1-0.1-0.1c-0.1-0.1-0.2-0.2-0.3-0.2c0-0.1-0.1-0.1-0.1-0.2
					c-0.1-0.2-0.5-0.1-0.6,0.1c-0.2,0.1-0.3,0.1-0.2,0.2c0.1,0.1,0.2,0.2,0.3,0.2c0.4,1.3,0.8,2.6,1.1,3.9c0.1,0.2,0.7,0,0.7-0.2
					c0-0.7-0.1-1.4-0.3-2.1c1.1,1.3,2.2,2.2,4.2,1.7C60.8,47,61.9,45,61.8,43.2z"/>
			</g>
			<g>
				<path class="st4" d="M43.2,50.1h-7.6c-1.2,0-2.2-1-2.2-2.2v-7.6c0-1.2,1-2.2,2.2-2.2h7.6c1.2,0,2.2,1,2.2,2.2v7.6
					C45.4,49.1,44.4,50.1,43.2,50.1z"/>
				<path class="st17" d="M39.2,42.6c0.5,0.4,1,0.7,1.6,1c-1.9-0.1-3.9-0.1-5.8,0c-0.2,0,0,0.8,0.2,0.8c2.2-0.1,4.5-0.1,6.7,0
					c-0.8,0.3-1.5,0.8-2.2,1.3c-0.3,0.2,0,0.9,0.3,0.7c1.2-0.8,2.3-1.6,3.7-1.6c0.4,0,0.3-0.6,0-0.8c0-0.1-0.1-0.3-0.2-0.3
					c-1.5-0.4-3.1-0.9-4.4-1.9C38.9,41.7,39,42.4,39.2,42.6z"/>
			</g>
			<g>
				<path class="st4" d="M25.2,50.1h-7.6c-1.2,0-2.2-1-2.2-2.2v-7.6c0-1.2,1-2.2,2.2-2.2h7.6c1.2,0,2.2,1,2.2,2.2v7.6
					C27.4,49.1,26.4,50.1,25.2,50.1z"/>
				<path class="st17" d="M21.6,45.7c-0.5-0.4-1-0.7-1.6-1c1.9,0.1,3.9,0.1,5.8,0c0.2,0,0-0.8-0.2-0.8c-2.2,0.1-4.5,0.1-6.7,0
					c0.8-0.3,1.5-0.8,2.2-1.3c0.3-0.2,0-0.9-0.3-0.7c-1.2,0.8-2.3,1.6-3.7,1.6c-0.4,0-0.3,0.6,0,0.8c0,0.1,0.1,0.3,0.2,0.3
					c1.5,0.4,3.1,0.9,4.4,1.9C21.9,46.6,21.8,45.8,21.6,45.7z"/>
			</g>
		</g>
		<path class="st18" d="M346.2,229.6c-0.6-0.2-1.3-2.1,0-1.7c3.2,1,5.1,0.2,5.8-1.8c0.4-1.2-3-12.6-4.6-14.3
			c-0.7-0.8-1.7-1.5-1.9-2.5c-0.2-1,0-1.7,0-2.7c0-2.6-0.7-5-1.2-7c-0.4-1.7-1.5-6.8-2.7-7.7c0.1,1.3-0.3,10.9,1,16.4
			c0.1,0.5,0.4,1.7,0.2,2.3c-0.1,0.5-0.3,1.2-0.3,1.8c-0.3,2.8-0.4,12.1,0.3,14.2c0.5,1.4,1.8,2,1.6,2.8c-0.3,0.9-3.3,0.3-4.2,0.3
			c-0.6,0-5.2,0.5-5.8,0.1c-0.7-0.4-0.6-1.7,0.1-1.9c0.5-0.2,1.5,0.5,1.8,0.5c3.5,0.7,4.7-1.1,5-3.9c0.1-1.3,0.5-10.3-0.4-12.3
			c-0.5-1.2-1.2-1.9-0.8-3.7c1.4-6.2,1.1-13.9-0.2-17.7c-0.5-1.6-0.9-1.8-1-3.2c-0.2-1.3,0.3-4,0.3-4s-1,1.9-1.4,2.5
			c-0.6,1-0.8,1.8-1,2.4c-0.2,0.5-0.6,0.3-1.2,0.9c-0.5,0.5-0.9,0.2-1.3,0c-0.4-0.3-0.8-0.1-1.1-0.3c-0.3-0.2,0-0.5-0.8-0.9
			c-0.3-0.2,0.5-0.5-0.9-1.1c-0.3-0.1,0-0.6,0.5-0.8c1.3-0.4,0.9-1.4,2.2-1.4c0.9,0,1.9,0.7,2.3,0.5c0.4-0.2,0.9-0.7,1.5-1.5
			c0.8-1,1.1-1.9,1.2-2.3c0.1-0.4,0.1-1.1,0.4-2.1c0.2-0.8,0.6-1.8,0.6-1.8l-3.3,4l0.2-2.1c0,0,1.5-1.3,2.4-2.5
			c0.6-0.8,1.3-2,1.6-2.9c0.5-1.3,0.7-2.6,1.2-4.1c0.6-1.8,2.4-4.3,3.6-5.4c1.1-1,2.9-1.4,4.1-2.5c0.3-0.3,1.5-1.7,1.3-2.3
			c-0.3-1.2-2.5-1-2.8-2.1c-0.3-1.3,1-2.5,1.6-3.3c0.8-1.2,1.7-2.8,3-3.3c1.8-0.7,4.2-0.4,5.3,0.6c3.8,3.4,1.5,7.2-0.6,8.1
			c-1,0.4-2.3,0.2-3.2,0.5c-1.2,0.4-4.6,3-4.2,3.7c0.5,0.7,1.2-0.4,2-0.6c2.3-0.7,2.7,1.6,1.1,3c-0.8,0.7-2,1.7-3.2,2.7
			c-1.3,1-3.5,3.4-4,3.9c-1.4,1.5-1.6,4.4-1.6,7.3c0,1.8,0.4,3.3,0.8,4.9c0.2,0.8,1.1,1.5,0.6,3.3c-0.7,2.4-1.8,1.9-2,3.6
			c-0.6,4.3,2.5,13,3.4,14.5c0.6,1,1.1,1.4,1.3,2.7c0.1,0.6,0.1,1.3,0.1,1.7c0,2.4,3.9,13.7,5.9,15.8c1,1,1.4,1.7,1.2,2.4
			c-0.4,1.1-3.5,0-4.8,0.1C349.4,229.4,347.6,230,346.2,229.6z"/>
		<path class="st18" d="M312.8,44.1c-3,0.1-6.1,1.8-8.5,3.2c-3.1,1.8-10.6,0.8-13.3-1.5c-1.2-1-1.9-8-2.2-10.7
			c-0.3-2.8-0.8-5,1.1-6.2c0.4-0.3,0.8-0.1,1.1-0.5c0.5-0.8-1-1.9,0-2.5l6.5-3.7c0.9-0.5,1.4,3.4,2.4,3.5c0.5,0.1,3.3-1.2,3.1-2
			c-0.3-1.6-4.6-7.4-5.3-7.6c-1-0.3-3.1,1.2-3,1.8c0.2,1.1,2.5,2.7,1.9,3.1l-7.1,4c-0.3,0.2-0.6-0.6-1-0.8c-0.5-0.2-0.6,0.4-1.1,0.3
			c-0.4,0-0.4-0.6-1-0.5c-0.7,0.1-0.5,0.9-0.9,1.2c-0.3,0.2-0.7,0-1,0.2c-0.3,0.2-0.2,0.8-0.5,1.2c-0.4,0.4-0.8,0.3-1,0.5
			c-0.3,0.5,0.1,1.2,0,1.5l-3.3,1.9l0.7,1.3l3.3-1.9c1.2,0.7,1.8,1.3,2.5,2c1,1,2.5,8.7,2.5,12.4c0,1.2-0.2,2.7-0.2,3.1
			c0.3,1.7,2.3,1,3.9,1.2c2.5,0.3,5.3,1.2,6.5,1.8c0.7,0.3,2.8,1.2,2.4,2.5c-0.5,1.5-1.7,1.6-2.5,1.1c-0.9-0.6-0.9-1.7-1.7-2.1
			c-2.3-1.3-6.5-0.3-7.5,2.2c-0.8,2-0.3,4.8,1.2,6c1.5,1.2,3.2,1.1,5.6,1.1c0.6,0,1.9,0.2,2.7,0.1c2.1-0.2,0.6-2.4,1.2-4.3
			c0.2-0.7,1.7-2,3.2-1.6c0.8,0.2,1.7,1.7,1.9,2.7c0.4,1.5,1,11.2-3.1,13.2c-1.7,0.8-7.9,2.9-9.7,2.6c-0.9-0.2-0.9-1.8-2.4-1.7
			c-0.4,0-0.8,0.5-1.4,0.9c-0.9-1.6-1.7-3-1.8-3.4c-0.1-0.4,1.3-1,1-1.6c-0.3-0.5-4.1,1.7-3.6,2.5c0.3,0.4,1.2-0.5,1.6-0.3
			c0.3,0.2,1.2,1.4,2.2,3c-0.5,0.2-1,0.4-1.2,0.6c-0.6,0.9,0,0.9,0.1,1.4c0,0.4-0.7,1.1-0.2,1.5c0.5,0.4,1.2,0,1.2,0.5
			c0,0.8,0.7,0.8,1.1,0.9c0.1,0,0.2,0.5,0.3,0.6c0.3,0.4,2,0.3,2.3,0.1c0,0,0,0,0,0c0.9,1.5,1.6,2.6,1.6,2.6v-0.9c0,0-0.5-0.8-1.2-2
			c0.5-0.5,0.4-1.4,0.6-1.9c0.8-1.8,8.3-3.8,11-3.6c0.9,0.1,2.2,0.5,2.9,0.2c2.1-0.9,0.3-3.3,0.1-4.9c-0.1-1,0.1-6.2,0.9-8.4
			c0.1-0.4,2.9-10,7.1-10c2.8,0,11.3,0,11.3,0C323.4,46.5,319.6,43.8,312.8,44.1z"/>
		<path class="st18" d="M231.4,204.6c-0.4-0.6-4.2-6.5-5.5-9.5c-0.6-1.4-0.9-3.5-0.8-5.1c0-0.9,0.4-2,0.5-2.2c1-2.4,0.3-5.4-0.7-7.5
			c-1.8-3.8-5.6-8.3-6-8.8c0.3-0.6,1.4-2.3,1.6-2.5c0.4-0.5,1.2-1,0.9-2l-4.7-0.5l1.3-5.5c-0.4-0.6-0.8,0.5-0.9,1
			c-0.2,0.7-0.7,0.7-0.9,1.3c-0.1,0.3-0.3,0.7-0.4,1.2c-0.2,0.6-0.9,0.9-0.9,1.5c0,0.7,0.6,0.9,1.2,1c0.9,0.2,2,0.6,2.2,0.8
			c1.1,1,0.8,1.8-0.2,2.8c-0.9-0.9-2.1-2.1-3.6-3.2c-1.9-1.3-0.6-4.1,0-6.1c0.7-2.4,1.3-4.5,2.1-6.3c0.3-0.6,1-1.3,1.2-1.9
			c0.2-0.7-0.1-1.6,0.1-2.4c0.2-0.9,3.7-7.6,4.6-10.4l1.5-7.6c-0.2-0.7-0.7-0.6-0.7-0.1c-0.1,1.6-0.7,2-1.1,3.4
			c-0.2,0.6-1,0.7-1.2,1.6c-0.1,0.4,0.4,0.7,0.5,1.1c0.1,0.5,0.3,1.2,0.3,1.6c-0.1,2.6-4.5,9.4-4.8,10.1c-0.4,1-0.6,1.5-0.9,2.3
			c-0.3,0.8,0.1,1.2-0.6,3.7c-0.7,2.2-0.9,3.2-1.7,5.3c-0.4,1-1.3,2.8-2.2,2.7c-0.6-0.1-0.9-1.3-0.7-2.2c0.2-0.7,0.6-1.3,1.2-2.1
			c0.5-0.7,1.7-1.8,1.5-2.6c-0.1-0.5-3.1-2.3-3.9-3c-0.6-0.5-2.3-1.1-3.4-0.9c-1.8,0.3-3.4,1.9-3.9,3.4c-0.4,1.3-0.1,2.9,0.6,4.1
			c0.8,1.4,3.1,1.8,5.3,1.9c1,0,1.7,1.6,1,2.4c-0.5,0.5-1.4,0-1.8,0.2c-1.3,0.8-0.3,2.3,0,3.6c0.2,0.9,1.2,5.9,1.3,8.9
			c0.1,1.6-0.9,3.7,0.9,4c1.1,0.2,1.6-0.8,1.8-1.3c1.3-2.7,3.7-4.9,4.3-5.2c1.3,1.2,3.3,5,2.7,7.7c-0.3,1.7-2.4,2.4-2.8,4.8
			c-0.5,2.7,1.9,3,2.4,4.9c1,3.6-0.2,10.5-1.6,13.1c-0.5,1-1.2,1.8-1.6,2.6c-0.3,0.6-0.3,1.4-0.5,2c-0.5,1.6-3.5,8.4-8.5,15.1
			c-0.6,0.8-2.3,1.4-2.2,2.5c0.1,0.6,0.9,1.4,1.6,1.5c1.4,0.2,2.7-0.5,4.8-0.4c1.9,0.1,5.7,1.1,5.9-1.1c0.1-1.1-0.9-1.1-2.2-0.9
			c-1,0.2-2.1,0.7-3.2,0.5c-0.6-0.1-1.8-1.2-1.9-2c-0.3-2,5-10.9,5.8-12c0.6-0.8,2.1-2.1,2.3-2.3c0.6-0.5,1.7-1.5,1.8-2.2
			c0.1-0.7,0.2-1.7,0.2-2.4c-0.4-5.9,1.8-13.5,3.7-15.3c1,0.5,2.5,4.4,3.6,6.7c1.2,2.4,2.6,5.6,2.3,8.3c-0.5,5-5.9,12.6-9,14.6
			c-0.7,0.5-2,0.3-2.5,0.7c-0.8,0.6-1.1,2.3,1.7,3.2c1.1,0.3,1.5,1.7,1.9,2.8c0.2,0.8,0.5,1.6,0.9,1.7c0.6,0.2,1.4-0.2,2.1-0.2
			c0.6,0,1,0.5,1.5,0.1c0.5-0.4,0.2-1.7-0.3-1.9c-0.8-0.3-2.1,0.9-2.6,0c-1.8-3.4,0.5-6.4,1.6-8.9c0.4-1,5-7.9,5.8-8.6
			c0.4-0.4,1.9-1.7,2.1-2C232.5,206.8,232.2,205.7,231.4,204.6z M212.9,177.6c-0.5,0.5-1.6,1.9-2.6,1.6c-1.1-0.3-1.5-7.9-0.3-8.1
			c1.7-0.4,5,3.3,5.2,3.7C214.8,175.6,213.2,177.3,212.9,177.6z"/>
		<path class="st18" d="M147.2,22.6c0,0,2.4,4.3,2.9,5.3c1,1.8,3.3,0.9,3.8,2.6c0.3,0.9-1.2,2.2-0.9,2.7c0.5,0.8,2.2,4.1,2.2,4.1
			l0,1.2l-1-0.7l-1.5-2.7c-2-0.6-4,8.7-4.4,12.2c-0.2,1.7-0.7,4.2,0.1,5c1.4,1.5,6.4,2.4,9.6,2c1.5-0.2,2.7-1.1,3.2,0.2
			c0.4,1,1.6,1.6,1.9,1.4c0.3-0.3,0.4-2.3-0.3-3.3c-1.2-1.7-3.1-1.3-3.3-3.3c-0.1-1,0.6-2.4,1-3c0.4-0.6,1.5-2.6,2-3
			c1.1-1,2.9-1.3,4.3-0.9c4.5,1.1,4.7,5.7,2.6,8.1c-1,1.2-3,1.3-3.8,2.1c-0.4,0.4-1,3.6,0.1,4.1c1.6,0.7,1.9-0.4,3-0.2
			c1.5,0.2,1.3,1.8,2.8,3.2c1.6,1.5,5.9,5.6,7.7,4.8c2.3-1.1,4.4-9.5,3.4-12c-0.3-0.7-2.7,0-2.6-2.4c0-0.3,1.1,0.1,1.2-0.1
			c0.6-1,0.1-2.1,1.2-2.5c0.2-0.1,0.9,0.5,1.1,0.5c0.8,0,1.2-0.8,1.4-0.8c0.6,0,0.3,0.6,0.8,0.9c1,0.6,2.2-0.4,1.9,0.8
			c-0.3,1.2-0.1,2.9-0.6,3.3c-0.3,0.3-1.2,0.4-1.6,0.8c-0.7,0.8-3,10-3.3,11.1c-0.3,1.1,0,3.1-1.1,3.5c-1.4,0.5-2-0.9-3-1.7
			c-0.9-0.6-7.3-4.4-8-4.1c-1.5,0.6-1.7,4.2-1.9,5.4c-1,5.4,0.1,11,0.1,17.8c0,4.6-0.2,9.2,0.2,12.2c0.2,1.8,1.1,1.9,0.6,3.6
			c-1,3.7-1.3,11.4-0.8,15.3c0.1,0.9,0.7,0.8,0.4,1.5c-0.4,1,1.3,2,0.9,2.6c-0.5,0.7-3.4,0.7-3.9,0.2c-0.6-0.6-1.4-0.3-1.7-1
			c-0.2-0.4,0.4-0.3,2.1-1.1c1-0.4,0.4-0.5,0.5-1c0.1-0.5,0.4-0.4,0.4-1.9c0-0.8,0-11.1-0.9-13.3c-0.4-1-1.1-1.7-0.4-3.3
			c0.3-0.7,0.7-1.3,0.7-1.5c0.2-0.6,0.1-2.5,0.1-3.7c0-4-0.4-8.2-1.9-10.4c-2.2-3.1-11-3.8-16.5-3.9c-1.2,0-3.4-0.6-4.2,0.4
			c-0.8,1.1,1.5,4,1.8,4.6c1.1,2,5.3,9.2,9.2,14.8c1.1,1.5,1.9,1.6,1.4,2.7c-0.3,0.7-1.7,0.5-2.9,0.2c-1.7-0.4-3.1-0.2-3.7-0.7
			c-0.9-0.7,1.1-0.7,1.8-1c1.7-0.6,1.3-1.4,1-2.1c-0.2-0.4-7.3-14.2-10-16.7c-0.8-0.7-3.4-1.6-2-3.9c0.7-1.1,2.7-0.5,3.7-0.3
			c3.2,0.7,6.1,1.4,10.7,0.8c2.5-0.3,5.5-0.9,6.4-2.5c1.2-2.2,0.2-8.2-0.6-11.6c-0.6-2.7-2.1-5.7-4.9-7.4c-1.2-0.8-4.4-1.7-6.2-2.3
			c-3.2-1-4.8-0.3-5.2-1.5c-0.3-0.9,1.3-3.3,1.6-4.3c1.9-6,2.9-11.8,1.8-15c-0.2-0.7-1-1.6-1-1.9c0-1.3,1.9-3.2,1.9-3.2l-2.9-5.4
			L147.2,22.6z"/>
		<path class="st18" d="M95.1,221c-0.7-0.7-6.8-13.7-7.1-14.7c-0.3-1.2-0.2-2.1-0.6-3.2c-0.3-0.8-1-1.4-1.4-2.1
			c-1.3-2-5.3-13.3-5-15.7c0.1-1.2,1-1.3,1.3-2c0.3-0.6,0.5-1.3,0.4-2.4c-0.1-0.6-0.6-1.2-0.9-1.8c-4.4-6.9-1.4-14.9,1.4-17.4
			c1.3-1.2,1.9-2.2,2.1-4.3c0.2-1.4-0.3-3.2,1.1-3.4c1.6-0.2,2,1,3.1,1.4c3.1,1.1,7.9-0.2,7.1-5.3c-0.4-2.9-2.7-3.6-4.6-3.6
			c-1.3,0-2.5,0.7-3.7,1.2c-1.2,0.5-2.6,1.1-2.7,2.2c-0.1,0.6,0.5,1.1,0.4,1.9c-0.1,0.6-0.7,1.4-1.2,1.3c-0.4-0.1-1-1.1-1.1-1.9
			c-0.6-3-1-10.3-0.7-12.8c0.1-0.6,0.6-0.9,0.6-1.6c0-0.9-0.8-2-1.1-3c-0.4-1.6-1.5-12.2-1.1-15.4c0.1-0.5,0.4-1,0.5-1.6
			c0.1-0.5-0.2-1.2,0.1-1.5c0.4-0.4,1,0.2,1.6-0.1c0.7-0.5,0.3-3.4,0.3-4.2l-0.8,0.8c-0.7,0.4,0,1.3-0.5,1.6c-1,0.6-0.9-0.2-1.5,0.4
			l-1.2,1.2c-0.2,0.2-0.2,0.6-0.4,0.9c-0.1,0.3-0.1,0.6-0.4,0.7c-1.5,0.5-2.4,0.4-2.6,1.2c-0.2,0.8,0.5,1.9,0.8,2.7
			c0.5,1.5,1.2,10.4,1,14.3c0,0.8-0.2,1.4,0,2c0.1,0.6,0.6,1.1,0.8,1.7c0.3,0.7,0.5,1.9,0.6,2.9c0.2,1.3,0.3,2.9,0.4,4.4
			c0.2,3.4,1,7.4-0.1,10.3c-0.3,0.9-4.3,6.9-4.8,7.8c-2,3.1-3.7,9.4,0,18c0.7,1.6,1.6,2.9,2.2,4.5c1.4,4,2.1,9.5,1.7,14.8
			c-0.1,1-0.3,2.2-0.2,3.2c0.2,1.3,1,2,1.4,3.1c0.6,1.6,2,8.7,1.3,13.2c-0.1,0.9-0.4,2.7-0.4,3.8c0,0.7,0.4,2.2,0.3,2.8
			c0,0.2-0.4,1.1-0.7,1.1c-0.6,0.1-1.3-0.9-1.8-0.6c-0.5,0.3-0.4,1.4-0.1,1.7c0.3,0.3,2.4,0.2,3,0.2c0.6,0,1.3-1.7,1.4-2
			c0.2-0.6-0.4-0.7,0.1-2.1c0.3-0.8,1.8-1.1,1.9-2.2c0.1-0.4-0.9-1.5-1.2-1.9c-1.4-1.9-2.6-12.9-2.4-15.2c0-0.5,0.1-1.3,0.1-1.7
			c-0.1-1.3-0.8-2.6-1.1-4.1c-1.1-4.7-1.5-9.9-2.2-14.8c1.6,2,5.3,12.6,5.5,15.6c0.1,1,0,2,0.3,2.9c0.3,0.9,1.7,1.8,2.4,2.6
			c1.4,1.8,5.4,10.9,5.7,13.1c0.1,1,0.2,2.2,0.3,3.4c0.1,1,0.7,2.1,0.6,3.1c-0.1,0.5-0.5,2.1-1.2,2.2c-0.6,0-1.5-1.2-2-0.6
			c-1.3,1.8,0.2,1.9,3.7,1.9c0.8,0,1.1-1.3,1.3-2.3c0.1-0.8-0.9-1.7,0.6-3.1c0.4-0.4,1.2-0.5,1.3-1.1C97,222.4,95.7,221.6,95.1,221z
			 M80.5,137.4c0.1-0.6,0.2-1,0-1.8c-0.1-0.5-0.6-1.5-0.7-2.1c-0.4-1.6-1.3-9-1.4-11.1c-0.1-1.7-0.8-3.8,0.7-4
			c0.6-0.1,1.1,0.7,1.3,1.2c0.3,0.8,1,11.5,1.1,14.6c0,1.1-0.3,1.8-0.3,2.9c0,0.4,0.2,1,0.4,1.4c0.5,1.4,1.1,10.9,0.9,14.4
			c-0.9-1.9-1.2-4.5-1.5-7.2C80.6,143.1,80.2,140.2,80.5,137.4z"/>
		<g>
			<g>
				<path class="st4" d="M136.2,226.4H84.1c-1.2,0-2.2-1-2.2-2.2V77.5c0-1.2,1-2.2,2.2-2.2h52.1c1.2,0,2.2,1,2.2,2.2v146.7
					C138.4,225.4,137.4,226.4,136.2,226.4z M84.1,75.5c-1.1,0-1.9,0.9-1.9,1.9v146.7c0,1.1,0.9,1.9,1.9,1.9h52.1
					c1.1,0,1.9-0.9,1.9-1.9V77.5c0-1.1-0.9-1.9-1.9-1.9H84.1z"/>
			</g>
			<g>
				<path class="st4" d="M336,226.4H144.9c-1.2,0-2.2-1-2.2-2.2V77.5c0-1.2,1-2.2,2.2-2.2H336c1.2,0,2.2,1,2.2,2.2v146.7
					C338.3,225.4,337.3,226.4,336,226.4z M144.9,75.5c-1.1,0-1.9,0.9-1.9,1.9v146.7c0,1.1,0.9,1.9,1.9,1.9H336
					c1.1,0,1.9-0.9,1.9-1.9V77.5c0-1.1-0.9-1.9-1.9-1.9H144.9z"/>
			</g>
			<path class="st4" d="M362.9,49.8H84.1c-1.1,0-1.9-0.9-1.9-1.9v-7.5c0-1.1,0.9-1.9,1.9-1.9h71.1v-0.3H84.1c-1.2,0-2.2,1-2.2,2.2
				v7.5c0,1.2,1,2.2,2.2,2.2h278.8V49.8z"/>
			<g>
				<path class="st4" d="M336,69.1h-252c-1.2,0-2.2-1-2.2-2.2v-8.3c0-1.2,1-2.2,2.2-2.2h252c1.2,0,2.2,1,2.2,2.2v8.3
					C338.3,68.1,337.3,69.1,336,69.1z M84.1,56.6c-1.1,0-1.9,0.9-1.9,1.9v8.3c0,1.1,0.9,1.9,1.9,1.9h252c1.1,0,1.9-0.9,1.9-1.9v-8.3
					c0-1.1-0.9-1.9-1.9-1.9H84.1z"/>
			</g>
			<g>
				<path class="st4" d="M86.4,41.1H87v2.3h0c0.1-0.2,0.3-0.4,0.5-0.5c0.2-0.1,0.4-0.2,0.7-0.2c0.5,0,1.3,0.3,1.3,1.6v2.2h-0.7v-2.1
					c0-0.6-0.2-1.1-0.8-1.1c-0.4,0-0.8,0.3-0.9,0.7c0,0.1,0,0.2,0,0.3v2.2h-0.7V41.1z"/>
				<path class="st4" d="M91.7,41.7v1h0.9v0.5h-0.9v2c0,0.5,0.1,0.7,0.5,0.7c0.2,0,0.3,0,0.4,0l0,0.5c-0.1,0.1-0.3,0.1-0.6,0.1
					c-0.3,0-0.6-0.1-0.7-0.3C91.1,46,91,45.7,91,45.3v-2h-0.6v-0.5H91v-0.9L91.7,41.7z"/>
				<path class="st4" d="M94.5,41.7v1h0.9v0.5h-0.9v2c0,0.5,0.1,0.7,0.5,0.7c0.2,0,0.3,0,0.4,0l0,0.5c-0.1,0.1-0.3,0.1-0.6,0.1
					c-0.3,0-0.6-0.1-0.7-0.3c-0.2-0.2-0.3-0.5-0.3-0.9v-2h-0.6v-0.5h0.6v-0.9L94.5,41.7z"/>
				<path class="st4" d="M96.6,44c0-0.5,0-0.8,0-1.2h0.6l0,0.6h0c0.3-0.4,0.7-0.7,1.3-0.7c0.9,0,1.5,0.7,1.5,1.9c0,1.3-0.8,2-1.7,2
					c-0.5,0-0.9-0.2-1.1-0.6h0v2h-0.7V44z M97.3,44.9c0,0.1,0,0.2,0,0.3c0.1,0.5,0.5,0.8,1,0.8c0.7,0,1.1-0.6,1.1-1.4
					c0-0.7-0.4-1.4-1.1-1.4c-0.5,0-0.9,0.3-1,0.8c0,0.1,0,0.2,0,0.3V44.9z"/>
				<path class="st4" d="M101.1,43.4c0-0.3,0.2-0.5,0.5-0.5c0.3,0,0.4,0.2,0.4,0.5c0,0.3-0.2,0.5-0.5,0.5
					C101.3,43.9,101.1,43.7,101.1,43.4z M101.1,46c0-0.3,0.2-0.5,0.5-0.5c0.3,0,0.4,0.2,0.4,0.5c0,0.3-0.2,0.5-0.5,0.5
					C101.3,46.5,101.1,46.3,101.1,46z"/>
				<path class="st4" d="M102.6,46.7l2.1-5.5h0.5l-2.1,5.5H102.6z"/>
				<path class="st4" d="M105.6,46.7l2.1-5.5h0.5l-2.1,5.5H105.6z"/>
				<path class="st4" d="M109.4,42.8l0.5,1.9c0.1,0.4,0.2,0.8,0.3,1.2h0c0.1-0.4,0.2-0.8,0.3-1.2l0.6-1.9h0.6l0.6,1.8
					c0.1,0.4,0.2,0.8,0.3,1.2h0c0.1-0.4,0.2-0.8,0.3-1.2l0.5-1.8h0.7l-1.2,3.6h-0.6l-0.6-1.7c-0.1-0.4-0.2-0.8-0.3-1.2h0
					c-0.1,0.4-0.2,0.8-0.3,1.2l-0.6,1.7h-0.6l-1.1-3.6H109.4z"/>
				<path class="st4" d="M115.4,42.8l0.5,1.9c0.1,0.4,0.2,0.8,0.3,1.2h0c0.1-0.4,0.2-0.8,0.3-1.2l0.6-1.9h0.6l0.6,1.8
					c0.1,0.4,0.2,0.8,0.3,1.2h0c0.1-0.4,0.2-0.8,0.3-1.2l0.5-1.8h0.7l-1.2,3.6h-0.6l-0.6-1.7c-0.1-0.4-0.2-0.8-0.3-1.2h0
					c-0.1,0.4-0.2,0.8-0.3,1.2l-0.6,1.7h-0.6l-1.1-3.6H115.4z"/>
				<path class="st4" d="M121.4,42.8l0.5,1.9c0.1,0.4,0.2,0.8,0.3,1.2h0c0.1-0.4,0.2-0.8,0.3-1.2l0.6-1.9h0.6l0.6,1.8
					c0.1,0.4,0.2,0.8,0.3,1.2h0c0.1-0.4,0.2-0.8,0.3-1.2l0.5-1.8h0.7l-1.2,3.6h-0.6l-0.6-1.7c-0.1-0.4-0.2-0.8-0.3-1.2h0
					c-0.1,0.4-0.2,0.8-0.3,1.2l-0.6,1.7h-0.6l-1.1-3.6H121.4z"/>
				<path class="st4" d="M126.6,46c0-0.3,0.2-0.5,0.5-0.5c0.3,0,0.4,0.2,0.4,0.5c0,0.3-0.2,0.5-0.5,0.5
					C126.7,46.5,126.6,46.3,126.6,46z"/>
			</g>
		</g>
		<g>
			<path class="st4" d="M218.8,166.7c-1.1-0.2-1.8-1.2-1.6-2.3l14.1-82.1c0.2-1.1,1.2-1.8,2.3-1.6l115.6,20.2
				c1.1,0.2,1.8,1.2,1.6,2.3l-14.1,82.1c-0.2,1.1-1.2,1.8-2.3,1.6L218.8,166.7z"/>
			<path class="st5" d="M240.2,89.6c-1.1-0.2-2.1,0.5-2.3,1.6L226.4,158c-0.2,1.1,0.5,2.1,1.6,2.3l99.6,17.4
				c1.1,0.2,2.1-0.5,2.3-1.6l11.5-66.8c0.2-1.1-0.5-2.1-1.6-2.3L240.2,89.6z"/>
			<path class="st4" d="M304.2,94.5l-10.4-14.9c0-0.1-0.1-0.1-0.2,0l-14.9,10.4l0.4,0.1L293.6,80l10.2,14.5L304.2,94.5z"/>
			<g>
				<path class="st4" d="M268.6,118.3l-0.9,4.7c-0.3,1.8,0.3,2.7,1.4,2.9c1.2,0.2,2.1-0.4,2.4-2.2l0.9-4.7l1,0.2l-0.9,4.6
					c-0.5,2.4-1.9,3.2-3.7,2.9c-1.6-0.3-2.7-1.5-2.2-3.9l0.9-4.7L268.6,118.3z"/>
				<path class="st4" d="M274.3,127.6l1.5-7.9l1.1,0.2l1.8,4.5c0.4,1,0.7,2,0.9,2.9l0,0c0.1-1.1,0.3-2,0.5-3.3l0.6-3.3l1,0.2
					l-1.5,7.9l-1-0.2l-1.8-4.5c-0.4-1-0.7-2-1-2.9l0,0c-0.1,1-0.3,2-0.5,3.3l-0.6,3.4L274.3,127.6z"/>
				<path class="st4" d="M284.2,121.4c0.6,0,1.4,0.1,2.2,0.3c1.5,0.3,2.5,0.8,3,1.6c0.6,0.8,0.8,1.8,0.6,3.1
					c-0.2,1.3-0.9,2.3-1.7,2.9c-0.9,0.6-2.2,0.8-3.7,0.5c-0.7-0.1-1.3-0.3-1.8-0.4L284.2,121.4z M283.8,128.6c0.2,0.1,0.6,0.2,1,0.3
					c2.2,0.4,3.6-0.6,4-2.7c0.4-1.9-0.5-3.3-2.6-3.7c-0.5-0.1-0.9-0.1-1.2-0.1L283.8,128.6z"/>
				<path class="st4" d="M295.9,127.9l-3.1-0.6l-0.5,2.9l3.4,0.7l-0.2,0.9l-4.5-0.9l1.5-7.9l4.3,0.8l-0.2,0.9l-3.3-0.6l-0.5,2.5
					l3.1,0.6L295.9,127.9z"/>
				<path class="st4" d="M299,124.2c0.5,0,1.3,0.1,2,0.2c1.1,0.2,1.8,0.5,2.2,1.1c0.3,0.4,0.5,1,0.3,1.6c-0.2,1-1,1.6-1.9,1.7l0,0
					c0.6,0.3,0.8,1,0.9,1.8c0,1.2,0.1,2,0.2,2.3l-1.1-0.2c-0.1-0.2-0.1-1-0.2-2c0-1.1-0.4-1.6-1.3-1.8l-1-0.2l-0.7,3.4l-1-0.2
					L299,124.2z M299.3,128l1,0.2c1.1,0.2,1.9-0.3,2.1-1.2c0.2-1-0.5-1.6-1.5-1.8c-0.5-0.1-0.9-0.1-1-0.1L299.3,128z"/>
				<path class="st4" d="M244.7,136.4c-0.4,0.1-1.2,0.2-2.2,0c-2.2-0.4-3.7-2.2-3.2-4.8c0.5-2.5,2.5-3.8,4.9-3.4
					c1,0.2,1.6,0.5,1.8,0.7l-0.4,0.8c-0.4-0.3-0.9-0.5-1.5-0.6c-1.9-0.4-3.3,0.6-3.7,2.7c-0.4,1.9,0.5,3.4,2.4,3.8
					c0.6,0.1,1.3,0.1,1.7,0L244.7,136.4z"/>
				<path class="st4" d="M253.9,134.2c-0.5,2.7-2.5,3.9-4.5,3.5c-2.1-0.4-3.3-2.3-2.8-4.7c0.5-2.5,2.4-3.9,4.5-3.5
					C253.2,129.9,254.3,131.8,253.9,134.2z M247.7,133.1c-0.3,1.7,0.3,3.4,1.9,3.7c1.6,0.3,2.8-1,3.2-2.8c0.3-1.6-0.2-3.4-1.9-3.7
					C249.1,130,248,131.4,247.7,133.1z"/>
				<path class="st4" d="M255,138.6l1.5-7.9l1.1,0.2l1.8,4.5c0.4,1,0.7,2,0.9,2.9l0,0c0.1-1.1,0.3-2,0.5-3.3l0.6-3.3l1,0.2l-1.5,7.9
					l-1-0.2l-1.8-4.5c-0.4-1-0.7-2-1-2.9l0,0c-0.1,1-0.3,2-0.5,3.3l-0.6,3.4L255,138.6z"/>
				<path class="st4" d="M263.4,138.9c0.4,0.4,1,0.7,1.7,0.9c1,0.2,1.8-0.2,1.9-1c0.1-0.7-0.2-1.2-1.2-1.9c-1.2-0.7-1.9-1.5-1.7-2.6
					c0.2-1.2,1.4-2,3-1.7c0.8,0.2,1.4,0.5,1.7,0.7l-0.4,0.8c-0.2-0.2-0.7-0.5-1.4-0.7c-1.1-0.2-1.6,0.4-1.7,0.9
					c-0.1,0.7,0.3,1.2,1.3,1.8c1.2,0.8,1.8,1.6,1.6,2.7c-0.2,1.2-1.3,2.1-3.2,1.8c-0.8-0.1-1.6-0.5-1.9-0.9L263.4,138.9z"/>
				<path class="st4" d="M272.6,134.6l-2.4-0.5l0.2-0.9l5.9,1.1l-0.2,0.9l-2.4-0.5l-1.4,7.1l-1-0.2L272.6,134.6z"/>
				<path class="st4" d="M277.7,134.8c0.5,0,1.3,0.1,2,0.2c1.1,0.2,1.8,0.5,2.2,1.1c0.3,0.4,0.5,1,0.3,1.6c-0.2,1-1,1.6-1.9,1.7l0,0
					c0.6,0.3,0.8,1,0.9,1.8c0,1.2,0.1,2,0.2,2.3l-1.1-0.2c-0.1-0.2-0.1-1-0.2-2c0-1.1-0.4-1.6-1.3-1.8l-1-0.2l-0.7,3.4l-1-0.2
					L277.7,134.8z M278,138.6l1,0.2c1.1,0.2,1.9-0.3,2.1-1.2c0.2-1-0.5-1.6-1.5-1.8c-0.5-0.1-0.9-0.1-1-0.1L278,138.6z"/>
				<path class="st4" d="M285.7,136.2l-0.9,4.7c-0.3,1.8,0.3,2.7,1.4,2.9c1.2,0.2,2.1-0.4,2.4-2.2l0.9-4.7l1,0.2l-0.9,4.6
					c-0.5,2.4-1.9,3.2-3.7,2.9c-1.6-0.3-2.7-1.5-2.2-3.9l0.9-4.7L285.7,136.2z"/>
				<path class="st4" d="M296.9,146.3c-0.4,0.1-1.2,0.2-2.2,0c-2.2-0.4-3.7-2.2-3.2-4.8c0.5-2.5,2.5-3.8,4.9-3.4
					c1,0.2,1.6,0.5,1.8,0.7l-0.4,0.8c-0.4-0.3-0.9-0.5-1.5-0.6c-1.9-0.4-3.3,0.6-3.7,2.7c-0.4,1.9,0.5,3.4,2.4,3.8
					c0.6,0.1,1.3,0.1,1.7,0L296.9,146.3z"/>
				<path class="st4" d="M302,140.2l-2.4-0.5l0.2-0.9l5.9,1.1l-0.2,0.9l-2.4-0.5l-1.3,7.1l-1-0.2L302,140.2z"/>
				<path class="st4" d="M308.1,140.5l-1.5,7.9l-1-0.2l1.5-7.9L308.1,140.5z"/>
				<path class="st4" d="M316.5,146.1c-0.5,2.7-2.5,3.9-4.5,3.5c-2.1-0.4-3.3-2.3-2.8-4.7c0.5-2.5,2.4-3.9,4.5-3.5
					C315.9,141.9,317,143.8,316.5,146.1z M310.3,145.1c-0.3,1.7,0.3,3.4,1.9,3.7c1.6,0.3,2.8-1,3.2-2.8c0.3-1.6-0.2-3.4-1.9-3.7
					C311.8,141.9,310.7,143.4,310.3,145.1z"/>
				<path class="st4" d="M317.7,150.6l1.5-7.9l1.1,0.2l1.8,4.5c0.4,1,0.7,2,0.9,2.9l0,0c0.1-1.1,0.3-2,0.5-3.3l0.6-3.3l1,0.2
					l-1.5,7.9l-1-0.2l-1.8-4.5c-0.4-1-0.7-2-1-2.9l0,0c-0.1,1-0.3,2-0.5,3.3l-0.6,3.4L317.7,150.6z"/>
			</g>
		</g>
		<g>
			<g>
				<g>
					<path class="st4" d="M60.6,114.6H19.5c-1.2,0-2.2-1-2.2-2.2v-7.8c0-1.2,1-2.2,2.2-2.2h41.1c1.2,0,2.2,1,2.2,2.2v7.8
						C62.8,113.6,61.8,114.6,60.6,114.6z"/>
				</g>
				<g>
					<path class="st17" d="M28.7,111.1c0-0.2,0-0.6,0-0.9v-4.4h0.7v2.3h0c0.2-0.4,0.7-0.7,1.2-0.7c0.9,0,1.5,0.8,1.5,1.9
						c0,1.3-0.8,2-1.6,2c-0.5,0-1-0.2-1.2-0.7h0l0,0.6H28.7z M29.4,109.7c0,0.1,0,0.2,0,0.2c0.1,0.5,0.5,0.8,1,0.8
						c0.7,0,1.1-0.6,1.1-1.4c0-0.7-0.4-1.4-1.1-1.4c-0.5,0-0.9,0.3-1,0.8c0,0.1,0,0.2,0,0.3V109.7z"/>
					<path class="st17" d="M36.5,110.1c0,0.4,0,0.7,0,1h-0.6l0-0.6h0c-0.2,0.3-0.6,0.7-1.2,0.7c-0.6,0-1.3-0.3-1.3-1.6v-2.1h0.7v2
						c0,0.7,0.2,1.2,0.8,1.2c0.4,0,0.8-0.3,0.9-0.6c0-0.1,0.1-0.2,0.1-0.3v-2.2h0.7V110.1z"/>
					<path class="st17" d="M38.8,106.4v1h1v0.5h-1v2c0,0.5,0.1,0.7,0.5,0.7c0.2,0,0.3,0,0.4,0l0,0.5c-0.1,0.1-0.3,0.1-0.6,0.1
						c-0.3,0-0.6-0.1-0.7-0.3c-0.2-0.2-0.3-0.5-0.3-1v-2h-0.6v-0.5h0.6v-0.9L38.8,106.4z"/>
					<path class="st17" d="M41.7,106.4v1h1v0.5h-1v2c0,0.5,0.1,0.7,0.5,0.7c0.2,0,0.3,0,0.4,0l0,0.5c-0.1,0.1-0.3,0.1-0.6,0.1
						c-0.3,0-0.6-0.1-0.7-0.3c-0.2-0.2-0.3-0.5-0.3-1v-2h-0.6v-0.5H41v-0.9L41.7,106.4z"/>
					<path class="st17" d="M47,109.3c0,1.4-0.9,1.9-1.8,1.9c-1,0-1.8-0.7-1.8-1.9c0-1.2,0.8-1.9,1.8-1.9
						C46.3,107.4,47,108.2,47,109.3z M44.1,109.3c0,0.8,0.5,1.4,1.1,1.4c0.6,0,1.1-0.6,1.1-1.4c0-0.6-0.3-1.4-1.1-1.4
						C44.4,107.9,44.1,108.6,44.1,109.3z"/>
					<path class="st17" d="M48.2,108.5c0-0.4,0-0.7,0-1h0.6l0,0.6h0c0.2-0.3,0.6-0.7,1.2-0.7c0.5,0,1.3,0.3,1.3,1.6v2.2h-0.7V109
						c0-0.6-0.2-1.1-0.8-1.1c-0.4,0-0.8,0.3-0.9,0.7c0,0.1,0,0.2,0,0.3v2.2h-0.7V108.5z"/>
				</g>
			</g>
			<g>
				<g>
					<path class="st4" d="M60.6,128.8H19.5c-1.2,0-2.2-1-2.2-2.2v-7.8c0-1.2,1-2.2,2.2-2.2h41.1c1.2,0,2.2,1,2.2,2.2v7.8
						C62.8,127.8,61.8,128.8,60.6,128.8z"/>
				</g>
				<g>
					<path class="st17" d="M28.7,125.3c0-0.2,0-0.6,0-0.9v-4.4h0.7v2.3h0c0.2-0.4,0.7-0.7,1.2-0.7c0.9,0,1.5,0.8,1.5,1.9
						c0,1.3-0.8,2-1.6,2c-0.5,0-1-0.2-1.2-0.7h0l0,0.6H28.7z M29.4,123.8c0,0.1,0,0.2,0,0.2c0.1,0.5,0.5,0.8,1,0.8
						c0.7,0,1.1-0.6,1.1-1.4c0-0.7-0.4-1.4-1.1-1.4c-0.5,0-0.9,0.3-1,0.8c0,0.1,0,0.2,0,0.3V123.8z"/>
					<path class="st17" d="M36.5,124.3c0,0.4,0,0.7,0,1h-0.6l0-0.6h0c-0.2,0.3-0.6,0.7-1.2,0.7c-0.6,0-1.3-0.3-1.3-1.6v-2.1h0.7v2
						c0,0.7,0.2,1.2,0.8,1.2c0.4,0,0.8-0.3,0.9-0.6c0-0.1,0.1-0.2,0.1-0.3v-2.2h0.7V124.3z"/>
					<path class="st17" d="M38.8,120.6v1h1v0.5h-1v2c0,0.5,0.1,0.7,0.5,0.7c0.2,0,0.3,0,0.4,0l0,0.5c-0.1,0.1-0.3,0.1-0.6,0.1
						c-0.3,0-0.6-0.1-0.7-0.3c-0.2-0.2-0.3-0.5-0.3-1v-2h-0.6v-0.5h0.6v-0.9L38.8,120.6z"/>
					<path class="st17" d="M41.7,120.6v1h1v0.5h-1v2c0,0.5,0.1,0.7,0.5,0.7c0.2,0,0.3,0,0.4,0l0,0.5c-0.1,0.1-0.3,0.1-0.6,0.1
						c-0.3,0-0.6-0.1-0.7-0.3c-0.2-0.2-0.3-0.5-0.3-1v-2h-0.6v-0.5H41v-0.9L41.7,120.6z"/>
					<path class="st17" d="M47,123.4c0,1.4-0.9,1.9-1.8,1.9c-1,0-1.8-0.7-1.8-1.9c0-1.2,0.8-1.9,1.8-1.9
						C46.3,121.6,47,122.3,47,123.4z M44.1,123.5c0,0.8,0.5,1.4,1.1,1.4c0.6,0,1.1-0.6,1.1-1.4c0-0.6-0.3-1.4-1.1-1.4
						C44.4,122.1,44.1,122.8,44.1,123.5z"/>
					<path class="st17" d="M48.2,122.6c0-0.4,0-0.7,0-1h0.6l0,0.6h0c0.2-0.3,0.6-0.7,1.2-0.7c0.5,0,1.3,0.3,1.3,1.6v2.2h-0.7v-2.1
						c0-0.6-0.2-1.1-0.8-1.1c-0.4,0-0.8,0.3-0.9,0.7c0,0.1,0,0.2,0,0.3v2.2h-0.7V122.6z"/>
				</g>
			</g>
			<g>
				<g>
					<path class="st4" d="M60.6,142.9H19.5c-1.2,0-2.2-1-2.2-2.2v-7.8c0-1.2,1-2.2,2.2-2.2h41.1c1.2,0,2.2,1,2.2,2.2v7.8
						C62.8,141.9,61.8,142.9,60.6,142.9z"/>
				</g>
				<g>
					<path class="st17" d="M28.7,139.4c0-0.2,0-0.6,0-0.9v-4.4h0.7v2.3h0c0.2-0.4,0.7-0.7,1.2-0.7c0.9,0,1.5,0.8,1.5,1.9
						c0,1.3-0.8,2-1.6,2c-0.5,0-1-0.2-1.2-0.7h0l0,0.6H28.7z M29.4,138c0,0.1,0,0.2,0,0.2c0.1,0.5,0.5,0.8,1,0.8
						c0.7,0,1.1-0.6,1.1-1.4c0-0.7-0.4-1.4-1.1-1.4c-0.5,0-0.9,0.3-1,0.8c0,0.1,0,0.2,0,0.3V138z"/>
					<path class="st17" d="M36.5,138.4c0,0.4,0,0.7,0,1h-0.6l0-0.6h0c-0.2,0.3-0.6,0.7-1.2,0.7c-0.6,0-1.3-0.3-1.3-1.6v-2.1h0.7v2
						c0,0.7,0.2,1.2,0.8,1.2c0.4,0,0.8-0.3,0.9-0.6c0-0.1,0.1-0.2,0.1-0.3v-2.2h0.7V138.4z"/>
					<path class="st17" d="M38.8,134.7v1h1v0.5h-1v2c0,0.5,0.1,0.7,0.5,0.7c0.2,0,0.3,0,0.4,0l0,0.5c-0.1,0.1-0.3,0.1-0.6,0.1
						c-0.3,0-0.6-0.1-0.7-0.3c-0.2-0.2-0.3-0.5-0.3-1v-2h-0.6v-0.5h0.6v-0.9L38.8,134.7z"/>
					<path class="st17" d="M41.7,134.7v1h1v0.5h-1v2c0,0.5,0.1,0.7,0.5,0.7c0.2,0,0.3,0,0.4,0l0,0.5c-0.1,0.1-0.3,0.1-0.6,0.1
						c-0.3,0-0.6-0.1-0.7-0.3c-0.2-0.2-0.3-0.5-0.3-1v-2h-0.6v-0.5H41v-0.9L41.7,134.7z"/>
					<path class="st17" d="M47,137.6c0,1.4-0.9,1.9-1.8,1.9c-1,0-1.8-0.7-1.8-1.9c0-1.2,0.8-1.9,1.8-1.9
						C46.3,135.7,47,136.5,47,137.6z M44.1,137.6c0,0.8,0.5,1.4,1.1,1.4c0.6,0,1.1-0.6,1.1-1.4c0-0.6-0.3-1.4-1.1-1.4
						C44.4,136.2,44.1,136.9,44.1,137.6z"/>
					<path class="st17" d="M48.2,136.8c0-0.4,0-0.7,0-1h0.6l0,0.6h0c0.2-0.3,0.6-0.7,1.2-0.7c0.5,0,1.3,0.3,1.3,1.6v2.2h-0.7v-2.1
						c0-0.6-0.2-1.1-0.8-1.1c-0.4,0-0.8,0.3-0.9,0.7c0,0.1,0,0.2,0,0.3v2.2h-0.7V136.8z"/>
				</g>
			</g>
			<g>
				<g>
					<path class="st4" d="M60.6,157.1H19.5c-1.2,0-2.2-1-2.2-2.2v-7.8c0-1.2,1-2.2,2.2-2.2h41.1c1.2,0,2.2,1,2.2,2.2v7.8
						C62.8,156.1,61.8,157.1,60.6,157.1z"/>
				</g>
				<g>
					<path class="st17" d="M28.7,153.6c0-0.2,0-0.6,0-0.9v-4.4h0.7v2.3h0c0.2-0.4,0.7-0.7,1.2-0.7c0.9,0,1.5,0.8,1.5,1.9
						c0,1.3-0.8,2-1.6,2c-0.5,0-1-0.2-1.2-0.7h0l0,0.6H28.7z M29.4,152.1c0,0.1,0,0.2,0,0.2c0.1,0.5,0.5,0.8,1,0.8
						c0.7,0,1.1-0.6,1.1-1.4c0-0.7-0.4-1.4-1.1-1.4c-0.5,0-0.9,0.3-1,0.8c0,0.1,0,0.2,0,0.3V152.1z"/>
					<path class="st17" d="M36.5,152.6c0,0.4,0,0.7,0,1h-0.6l0-0.6h0c-0.2,0.3-0.6,0.7-1.2,0.7c-0.6,0-1.3-0.3-1.3-1.6v-2.1h0.7v2
						c0,0.7,0.2,1.2,0.8,1.2c0.4,0,0.8-0.3,0.9-0.6c0-0.1,0.1-0.2,0.1-0.3v-2.2h0.7V152.6z"/>
					<path class="st17" d="M38.8,148.9v1h1v0.5h-1v2c0,0.5,0.1,0.7,0.5,0.7c0.2,0,0.3,0,0.4,0l0,0.5c-0.1,0.1-0.3,0.1-0.6,0.1
						c-0.3,0-0.6-0.1-0.7-0.3c-0.2-0.2-0.3-0.5-0.3-1v-2h-0.6v-0.5h0.6v-0.9L38.8,148.9z"/>
					<path class="st17" d="M41.7,148.9v1h1v0.5h-1v2c0,0.5,0.1,0.7,0.5,0.7c0.2,0,0.3,0,0.4,0l0,0.5c-0.1,0.1-0.3,0.1-0.6,0.1
						c-0.3,0-0.6-0.1-0.7-0.3c-0.2-0.2-0.3-0.5-0.3-1v-2h-0.6v-0.5H41v-0.9L41.7,148.9z"/>
					<path class="st17" d="M47,151.7c0,1.4-0.9,1.9-1.8,1.9c-1,0-1.8-0.7-1.8-1.9c0-1.2,0.8-1.9,1.8-1.9
						C46.3,149.9,47,150.6,47,151.7z M44.1,151.8c0,0.8,0.5,1.4,1.1,1.4c0.6,0,1.1-0.6,1.1-1.4c0-0.6-0.3-1.4-1.1-1.4
						C44.4,150.4,44.1,151.1,44.1,151.8z"/>
					<path class="st17" d="M48.2,150.9c0-0.4,0-0.7,0-1h0.6l0,0.6h0c0.2-0.3,0.6-0.7,1.2-0.7c0.5,0,1.3,0.3,1.3,1.6v2.2h-0.7v-2.1
						c0-0.6-0.2-1.1-0.8-1.1c-0.4,0-0.8,0.3-0.9,0.7c0,0.1,0,0.2,0,0.3v2.2h-0.7V150.9z"/>
				</g>
			</g>
			<g>
				<g>
					<path class="st4" d="M62.5,229.8h-43c-1.2,0-2.2-1-2.2-2.2v-7.8c0-1.2,1-2.2,2.2-2.2h43c1.2,0,2.2,1,2.2,2.2v7.8
						C64.7,228.8,63.7,229.8,62.5,229.8z"/>
				</g>
				<g>
					<path class="st17" d="M28.7,226.2c0-0.2,0-0.6,0-0.9v-4.4h0.7v2.3h0c0.2-0.4,0.7-0.7,1.2-0.7c0.9,0,1.5,0.8,1.5,1.9
						c0,1.3-0.8,2-1.6,2c-0.5,0-1-0.2-1.2-0.7h0l0,0.6H28.7z M29.4,224.7c0,0.1,0,0.2,0,0.2c0.1,0.5,0.5,0.8,1,0.8
						c0.7,0,1.1-0.6,1.1-1.4c0-0.7-0.4-1.4-1.1-1.4c-0.5,0-0.9,0.3-1,0.8c0,0.1,0,0.2,0,0.3V224.7z"/>
					<path class="st17" d="M36.5,225.2c0,0.4,0,0.7,0,1h-0.6l0-0.6h0c-0.2,0.3-0.6,0.7-1.2,0.7c-0.6,0-1.3-0.3-1.3-1.6v-2.1h0.7v2
						c0,0.7,0.2,1.2,0.8,1.2c0.4,0,0.8-0.3,0.9-0.6c0-0.1,0.1-0.2,0.1-0.3v-2.2h0.7V225.2z"/>
					<path class="st17" d="M38.8,221.5v1h1v0.5h-1v2c0,0.5,0.1,0.7,0.5,0.7c0.2,0,0.3,0,0.4,0l0,0.5c-0.1,0.1-0.3,0.1-0.6,0.1
						c-0.3,0-0.6-0.1-0.7-0.3c-0.2-0.2-0.3-0.5-0.3-1v-2h-0.6v-0.5h0.6v-0.9L38.8,221.5z"/>
					<path class="st17" d="M41.7,221.5v1h1v0.5h-1v2c0,0.5,0.1,0.7,0.5,0.7c0.2,0,0.3,0,0.4,0l0,0.5c-0.1,0.1-0.3,0.1-0.6,0.1
						c-0.3,0-0.6-0.1-0.7-0.3c-0.2-0.2-0.3-0.5-0.3-1v-2h-0.6v-0.5H41v-0.9L41.7,221.5z"/>
					<path class="st17" d="M47,224.3c0,1.4-0.9,1.9-1.8,1.9c-1,0-1.8-0.7-1.8-1.9c0-1.2,0.8-1.9,1.8-1.9
						C46.3,222.5,47,223.2,47,224.3z M44.1,224.4c0,0.8,0.5,1.4,1.1,1.4c0.6,0,1.1-0.6,1.1-1.4c0-0.6-0.3-1.4-1.1-1.4
						C44.4,223,44.1,223.7,44.1,224.4z"/>
					<path class="st17" d="M48.2,223.5c0-0.4,0-0.7,0-1h0.6l0,0.6h0c0.2-0.3,0.6-0.7,1.2-0.7c0.5,0,1.3,0.3,1.3,1.6v2.2h-0.7v-2.1
						c0-0.6-0.2-1.1-0.8-1.1c-0.4,0-0.8,0.3-0.9,0.7c0,0.1,0,0.2,0,0.3v2.2h-0.7V223.5z"/>
				</g>
			</g>
			<g>
				<g>
					<path class="st4" d="M144.8,229.8h-43c-1.2,0-2.2-1-2.2-2.2v-7.8c0-1.2,1-2.2,2.2-2.2h43c1.2,0,2.2,1,2.2,2.2v7.8
						C147.1,228.8,146.1,229.8,144.8,229.8z"/>
				</g>
				<g>
					<path class="st17" d="M112,226.2c0-0.2,0-0.6,0-0.9v-4.4h0.7v2.3h0c0.2-0.4,0.7-0.7,1.2-0.7c0.9,0,1.5,0.8,1.5,1.9
						c0,1.3-0.8,2-1.6,2c-0.5,0-1-0.2-1.2-0.7h0l0,0.6H112z M112.7,224.7c0,0.1,0,0.2,0,0.2c0.1,0.5,0.5,0.8,1,0.8
						c0.7,0,1.1-0.6,1.1-1.4c0-0.7-0.4-1.4-1.1-1.4c-0.5,0-0.9,0.3-1,0.8c0,0.1,0,0.2,0,0.3V224.7z"/>
					<path class="st17" d="M119.8,225.2c0,0.4,0,0.7,0,1h-0.6l0-0.6h0c-0.2,0.3-0.6,0.7-1.2,0.7c-0.6,0-1.3-0.3-1.3-1.6v-2.1h0.7v2
						c0,0.7,0.2,1.2,0.8,1.2c0.4,0,0.8-0.3,0.9-0.6c0-0.1,0.1-0.2,0.1-0.3v-2.2h0.7V225.2z"/>
					<path class="st17" d="M122.1,221.5v1h1v0.5h-1v2c0,0.5,0.1,0.7,0.5,0.7c0.2,0,0.3,0,0.4,0l0,0.5c-0.1,0.1-0.3,0.1-0.6,0.1
						c-0.3,0-0.6-0.1-0.7-0.3c-0.2-0.2-0.3-0.5-0.3-1v-2h-0.6v-0.5h0.6v-0.9L122.1,221.5z"/>
					<path class="st17" d="M125,221.5v1h1v0.5h-1v2c0,0.5,0.1,0.7,0.5,0.7c0.2,0,0.3,0,0.4,0l0,0.5c-0.1,0.1-0.3,0.1-0.6,0.1
						c-0.3,0-0.6-0.1-0.7-0.3c-0.2-0.2-0.3-0.5-0.3-1v-2h-0.6v-0.5h0.6v-0.9L125,221.5z"/>
					<path class="st17" d="M130.3,224.3c0,1.4-0.9,1.9-1.8,1.9c-1,0-1.8-0.7-1.8-1.9c0-1.2,0.8-1.9,1.8-1.9
						C129.6,222.5,130.3,223.2,130.3,224.3z M127.4,224.4c0,0.8,0.5,1.4,1.1,1.4c0.6,0,1.1-0.6,1.1-1.4c0-0.6-0.3-1.4-1.1-1.4
						C127.7,223,127.4,223.7,127.4,224.4z"/>
					<path class="st17" d="M131.5,223.5c0-0.4,0-0.7,0-1h0.6l0,0.6h0c0.2-0.3,0.6-0.7,1.2-0.7c0.5,0,1.3,0.3,1.3,1.6v2.2H134v-2.1
						c0-0.6-0.2-1.1-0.8-1.1c-0.4,0-0.8,0.3-0.9,0.7c0,0.1,0,0.2,0,0.3v2.2h-0.7V223.5z"/>
				</g>
			</g>
			<g>
				<g>
					<path class="st4" d="M133.5,217.5h-43c-1.2,0-2.2-1-2.2-2.2v-7.8c0-1.2,1-2.2,2.2-2.2h43c1.2,0,2.2,1,2.2,2.2v7.8
						C135.7,216.5,134.7,217.5,133.5,217.5z"/>
				</g>
				<g>
					<path class="st17" d="M98.8,214c0-0.2,0-0.6,0-0.9v-4.4h0.7v2.3h0c0.2-0.4,0.7-0.7,1.2-0.7c0.9,0,1.5,0.8,1.5,1.9
						c0,1.3-0.8,2-1.6,2c-0.5,0-1-0.2-1.2-0.7h0l0,0.6H98.8z M99.5,212.6c0,0.1,0,0.2,0,0.2c0.1,0.5,0.5,0.8,1,0.8
						c0.7,0,1.1-0.6,1.1-1.4c0-0.7-0.4-1.4-1.1-1.4c-0.5,0-0.9,0.3-1,0.8c0,0.1,0,0.2,0,0.3V212.6z"/>
					<path class="st17" d="M106.6,213c0,0.4,0,0.7,0,1H106l0-0.6h0c-0.2,0.3-0.6,0.7-1.2,0.7c-0.6,0-1.3-0.3-1.3-1.6v-2.1h0.7v2
						c0,0.7,0.2,1.2,0.8,1.2c0.4,0,0.8-0.3,0.9-0.6c0-0.1,0.1-0.2,0.1-0.3v-2.2h0.7V213z"/>
					<path class="st17" d="M108.9,209.3v1h1v0.5h-1v2c0,0.5,0.1,0.7,0.5,0.7c0.2,0,0.3,0,0.4,0l0,0.5c-0.1,0.1-0.3,0.1-0.6,0.1
						c-0.3,0-0.6-0.1-0.7-0.3c-0.2-0.2-0.3-0.5-0.3-1v-2h-0.6v-0.5h0.6v-0.9L108.9,209.3z"/>
					<path class="st17" d="M111.7,209.3v1h1v0.5h-1v2c0,0.5,0.1,0.7,0.5,0.7c0.2,0,0.3,0,0.4,0l0,0.5c-0.1,0.1-0.3,0.1-0.6,0.1
						c-0.3,0-0.6-0.1-0.7-0.3c-0.2-0.2-0.3-0.5-0.3-1v-2h-0.6v-0.5h0.6v-0.9L111.7,209.3z"/>
					<path class="st17" d="M117.1,212.2c0,1.4-0.9,1.9-1.8,1.9c-1,0-1.8-0.7-1.8-1.9c0-1.2,0.8-1.9,1.8-1.9
						C116.4,210.3,117.1,211.1,117.1,212.2z M114.2,212.2c0,0.8,0.5,1.4,1.1,1.4c0.6,0,1.1-0.6,1.1-1.4c0-0.6-0.3-1.4-1.1-1.4
						C114.5,210.8,114.2,211.5,114.2,212.2z"/>
					<path class="st17" d="M118.3,211.4c0-0.4,0-0.7,0-1h0.6l0,0.6h0c0.2-0.3,0.6-0.7,1.2-0.7c0.5,0,1.3,0.3,1.3,1.6v2.2h-0.7v-2.1
						c0-0.6-0.2-1.1-0.8-1.1c-0.4,0-0.8,0.3-0.9,0.7c0,0.1,0,0.2,0,0.3v2.2h-0.7V211.4z"/>
				</g>
			</g>
			<g>
				<g>
					<path class="st4" d="M158.3,229.1l-30.4-30.4c-0.9-0.9-0.9-2.3,0-3.2l5.5-5.5c0.9-0.9,2.3-0.9,3.2,0l30.4,30.4
						c0.9,0.9,0.9,2.3,0,3.2l-5.5,5.5C160.6,230,159.1,230,158.3,229.1z"/>
				</g>
				<g>
					<path class="st17" d="M137.5,203.5c0.2-0.2,0.5-0.4,0.7-0.6l3.1-3.1l0.5,0.5l-1.6,1.6l0,0c0.5-0.1,0.9,0,1.4,0.4
						c0.6,0.6,0.6,1.6-0.2,2.4c-0.9,0.9-2,0.8-2.5,0.2c-0.4-0.4-0.5-0.8-0.4-1.4l0,0l-0.4,0.4L137.5,203.5z M139.1,202.9
						c-0.1,0.1-0.1,0.1-0.1,0.2c-0.2,0.4-0.2,0.9,0.2,1.3c0.5,0.5,1.2,0.4,1.8-0.2c0.5-0.5,0.7-1.2,0.2-1.7
						c-0.3-0.3-0.8-0.4-1.3-0.1c-0.1,0-0.1,0.1-0.2,0.2L139.1,202.9z"/>
					<path class="st17" d="M143.7,208.2c-0.3,0.3-0.5,0.5-0.7,0.7l-0.4-0.4l0.4-0.4l0,0c-0.3,0.1-0.9,0.1-1.3-0.4
						c-0.4-0.4-0.7-1.1,0.2-2l1.5-1.5l0.5,0.5l-1.4,1.4c-0.5,0.5-0.7,1-0.2,1.4c0.3,0.3,0.8,0.3,1,0.2c0.1,0,0.2-0.1,0.3-0.2
						l1.6-1.6l0.5,0.5L143.7,208.2z"/>
					<path class="st17" d="M148,207.2l-0.7,0.7l0.7,0.7l-0.4,0.4l-0.7-0.7l-1.4,1.4c-0.3,0.3-0.4,0.6-0.1,0.9
						c0.1,0.1,0.2,0.2,0.3,0.2l-0.3,0.4c-0.1-0.1-0.3-0.2-0.5-0.4c-0.2-0.2-0.3-0.5-0.3-0.7c0-0.3,0.2-0.5,0.5-0.9l1.4-1.4l-0.4-0.4
						l0.4-0.4l0.4,0.4l0.6-0.6L148,207.2z"/>
					<path class="st17" d="M150,209.3l-0.7,0.7l0.7,0.7l-0.4,0.4l-0.7-0.7l-1.4,1.4c-0.3,0.3-0.4,0.6-0.1,0.9
						c0.1,0.1,0.2,0.2,0.3,0.2l-0.3,0.4c-0.1-0.1-0.3-0.2-0.5-0.4c-0.2-0.2-0.3-0.5-0.3-0.7c0-0.3,0.2-0.5,0.5-0.9l1.4-1.4l-0.4-0.4
						l0.4-0.4l0.4,0.4l0.6-0.6L150,209.3z"/>
					<path class="st17" d="M151.8,215.1c-1,1-2,0.7-2.7,0.1c-0.7-0.7-0.7-1.8,0.1-2.6c0.9-0.9,1.9-0.8,2.7-0.1
						C152.6,213.2,152.6,214.3,151.8,215.1z M149.7,213c-0.6,0.6-0.7,1.3-0.2,1.8c0.4,0.4,1.2,0.4,1.8-0.2c0.4-0.4,0.8-1.2,0.2-1.8
						C150.9,212.3,150.2,212.5,149.7,213z"/>
					<path class="st17" d="M153.2,215.4c0.3-0.3,0.5-0.5,0.7-0.7l0.4,0.4l-0.4,0.5l0,0c0.4-0.1,0.9-0.1,1.3,0.4
						c0.4,0.4,0.7,1.1-0.2,2l-1.5,1.5L153,219l1.5-1.5c0.4-0.4,0.6-0.9,0.2-1.4c-0.3-0.3-0.8-0.3-1.1-0.1c-0.1,0-0.2,0.1-0.3,0.2
						l-1.6,1.6l-0.5-0.5L153.2,215.4z"/>
				</g>
			</g>
			<g>
				<path class="st4" d="M75.5,116.3L46.4,87.2c-0.9-0.9-0.9-2.3,0-3.2l5.5-5.5c0.9-0.9,2.3-0.9,3.2,0l29.1,29.1
					c0.9,0.9,0.9,2.3,0,3.2l-5.5,5.5C77.8,117.2,76.4,117.2,75.5,116.3z"/>
				<g>
					<path class="st17" d="M56.3,91.3c0.2-0.2,0.5-0.4,0.7-0.6l3.1-3.1l0.5,0.5l-1.6,1.6l0,0c0.5-0.1,0.9,0,1.4,0.4
						c0.6,0.6,0.6,1.6-0.2,2.4c-0.9,0.9-2,0.8-2.5,0.2c-0.4-0.4-0.5-0.8-0.4-1.4l0,0l-0.4,0.4L56.3,91.3z M57.8,90.8
						c-0.1,0.1-0.1,0.1-0.1,0.2c-0.2,0.4-0.2,0.9,0.2,1.3c0.5,0.5,1.2,0.4,1.8-0.2c0.5-0.5,0.7-1.2,0.2-1.7
						c-0.3-0.3-0.8-0.4-1.3-0.1c-0.1,0-0.1,0.1-0.2,0.2L57.8,90.8z"/>
					<path class="st17" d="M62.5,96.1c-0.3,0.3-0.5,0.5-0.7,0.7l-0.4-0.4l0.4-0.4l0,0c-0.3,0.1-0.9,0.1-1.3-0.4
						c-0.4-0.4-0.7-1.1,0.2-2l1.5-1.5l0.5,0.5l-1.4,1.4c-0.5,0.5-0.7,1-0.2,1.4c0.3,0.3,0.8,0.3,1,0.2c0.1,0,0.2-0.1,0.3-0.2
						l1.6-1.6l0.5,0.5L62.5,96.1z"/>
					<path class="st17" d="M66.7,95.1L66,95.8l0.7,0.7l-0.4,0.4l-0.7-0.7l-1.4,1.4c-0.3,0.3-0.4,0.6-0.1,0.9
						c0.1,0.1,0.2,0.2,0.3,0.2L64,99.1c-0.1-0.1-0.3-0.2-0.5-0.4c-0.2-0.2-0.3-0.5-0.3-0.7c0-0.3,0.2-0.5,0.5-0.9l1.4-1.4l-0.4-0.4
						l0.4-0.4l0.4,0.4l0.6-0.6L66.7,95.1z"/>
					<path class="st17" d="M68.7,97.1L68,97.9l0.7,0.7l-0.4,0.4l-0.7-0.7l-1.4,1.4c-0.3,0.3-0.4,0.6-0.1,0.9
						c0.1,0.1,0.2,0.2,0.3,0.2l-0.3,0.4c-0.1-0.1-0.3-0.2-0.5-0.4c-0.2-0.2-0.3-0.5-0.3-0.7c0-0.3,0.2-0.5,0.5-0.9l1.4-1.4l-0.4-0.4
						l0.4-0.4l0.4,0.4l0.6-0.6L68.7,97.1z"/>
					<path class="st17" d="M70.5,102.9c-1,1-2,0.7-2.7,0.1c-0.7-0.7-0.7-1.8,0.1-2.6c0.9-0.9,1.9-0.8,2.7-0.1
						C71.3,101.1,71.3,102.1,70.5,102.9z M68.4,100.9c-0.6,0.6-0.7,1.3-0.2,1.8c0.4,0.4,1.2,0.4,1.8-0.2c0.4-0.4,0.8-1.2,0.2-1.8
						C69.7,100.1,68.9,100.4,68.4,100.9z"/>
					<path class="st17" d="M71.9,103.2c0.3-0.3,0.5-0.5,0.7-0.7l0.4,0.4l-0.4,0.5l0,0c0.4-0.1,0.9-0.1,1.3,0.4
						c0.4,0.4,0.7,1.1-0.2,2l-1.5,1.5l-0.5-0.5l1.5-1.5c0.4-0.4,0.6-0.9,0.2-1.4c-0.3-0.3-0.8-0.3-1.1-0.1c-0.1,0-0.2,0.1-0.3,0.2
						l-1.6,1.6l-0.5-0.5L71.9,103.2z"/>
				</g>
			</g>
		</g>
	</g>
</g>
</svg>
